<?xml version="1.0" encoding="utf-8"?>
<!-- Generator: Adobe Illustrator 23.0.2, SVG Export Plug-In . SVG Version: 6.00 Build 0)  -->
<svg version="1.1" id="Слой_1" xmlns="http://www.w3.org/2000/svg" xmlns:xlink="http://www.w3.org/1999/xlink" x="0px" y="0px"
	 viewBox="0 0 477.11 121.89" style="enable-background:new 0 0 477.11 121.89;" xml:space="preserve">
<style type="text/css">
	.st0{fill:#FFFFFF;}
	.st1{fill:url(#SVGID_1_);}
	.st2{fill:url(#SVGID_2_);}
	.st3{fill:url(#SVGID_3_);}
</style>
<g>
	<rect width="262.41" height="121.89"/>
	<path class="st0" d="M50.55,48.31c3.92,0,7.58,0.66,10.98,1.98c3.4,1.32,6.34,3.18,8.82,5.58c2.48,2.4,4.44,5.28,5.88,8.64
		c1.44,3.36,2.16,7.04,2.16,11.04c0,4.24-0.78,8.1-2.34,11.58c-1.56,3.48-3.7,6.46-6.42,8.94c-2.72,2.48-5.92,4.4-9.6,5.76
		c-3.68,1.36-7.6,2.04-11.76,2.04c-6.08,0-11.56-1.44-16.44-4.32c-4.88-2.88-8.56-6.72-11.04-11.52l6.6-5.76
		c2.24,3.68,5.22,6.64,8.94,8.88c3.72,2.24,7.74,3.36,12.06,3.36c2.72,0,5.26-0.46,7.62-1.38c2.36-0.92,4.4-2.2,6.12-3.84
		c1.72-1.64,3.06-3.62,4.02-5.94c0.96-2.32,1.44-4.88,1.44-7.68c0-2.64-0.48-5.08-1.44-7.32c-0.96-2.24-2.26-4.16-3.9-5.76
		c-1.64-1.6-3.58-2.84-5.82-3.72c-2.24-0.88-4.64-1.32-7.2-1.32c-3.44,0-6.66,0.76-9.66,2.28c-3,1.52-5.46,3.68-7.38,6.48h-9.48
		c0.08-0.4,0.28-1.42,0.6-3.06c0.32-1.64,0.72-3.64,1.2-6c0.48-2.36,1-4.98,1.56-7.86c0.56-2.88,1.12-5.8,1.68-8.76
		c1.36-6.88,2.88-14.6,4.56-23.16h41.4v9.72h-33.6l-5.16,27.12c1.76-1.84,3.96-3.3,6.6-4.38S47.19,48.31,50.55,48.31z"/>
	<path class="st0" d="M177.49,46.73c0-4.05,0.77-7.83,2.32-11.36c1.55-3.53,3.69-6.62,6.43-9.28c2.74-2.66,5.93-4.74,9.58-6.25
		c3.65-1.51,7.62-2.26,11.9-2.26c4.52,0,8.67,0.83,12.44,2.5c3.77,1.67,7,4.07,9.7,7.2c2.7,3.13,4.78,6.94,6.25,11.42
		c1.47,4.48,2.2,9.58,2.2,15.29c0,8.33-0.75,15.61-2.26,21.84c-1.51,6.23-3.65,11.42-6.43,15.59c-2.78,4.17-6.11,7.28-10,9.34
		c-3.89,2.06-8.21,3.09-12.97,3.09c-5.47,0-10.45-1.31-14.93-3.93c-4.48-2.62-7.99-6.31-10.53-11.07l6.43-6.31
		c1.74,3.73,4.32,6.68,7.73,8.87c3.41,2.18,7.22,3.27,11.42,3.27c6.5,0,11.7-2.9,15.59-8.69c3.89-5.79,5.91-13.92,6.07-24.39
		c-1.75,4.13-4.56,7.42-8.45,9.88c-3.89,2.46-8.33,3.69-13.33,3.69c-4.05,0-7.85-0.73-11.42-2.2c-3.57-1.47-6.66-3.47-9.28-6.01
		c-2.62-2.54-4.68-5.55-6.19-9.04C178.25,54.42,177.49,50.7,177.49,46.73z M207.6,26.62c-2.78,0-5.38,0.54-7.79,1.61
		c-2.42,1.07-4.54,2.52-6.37,4.34c-1.83,1.83-3.27,3.95-4.34,6.37c-1.07,2.42-1.61,5.02-1.61,7.79c0,2.78,0.54,5.38,1.61,7.79
		c1.07,2.42,2.52,4.52,4.34,6.31c1.82,1.79,3.95,3.21,6.37,4.28c2.42,1.07,5.02,1.61,7.79,1.61c2.78,0,5.37-0.54,7.79-1.61
		c2.42-1.07,4.54-2.5,6.37-4.28c1.82-1.79,3.27-3.89,4.34-6.31c1.07-2.42,1.61-5.02,1.61-7.79c0-2.7-0.54-5.27-1.61-7.73
		c-1.07-2.46-2.52-4.6-4.34-6.43c-1.83-1.82-3.97-3.27-6.43-4.34C212.88,27.15,210.3,26.62,207.6,26.62z"/>
	<polygon class="st0" points="136.63,42.38 148.56,42.38 160.96,17.72 99.98,17.72 99.98,27.52 144.14,27.52 	"/>
	<linearGradient id="SVGID_1_" gradientUnits="userSpaceOnUse" x1="99.3959" y1="77.7335" x2="146.4859" y2="77.7335">
		<stop  offset="0" style="stop-color:#8AC867"/>
		<stop  offset="0.4974" style="stop-color:#88C866"/>
		<stop  offset="1" style="stop-color:#1DBECD"/>
	</linearGradient>
	<polygon class="st1" points="131.8,51.59 105.04,103.87 117.14,103.87 143.87,51.59 	"/>
	<linearGradient id="SVGID_2_" gradientUnits="userSpaceOnUse" x1="101.5773" y1="58.8732" x2="151.7853" y2="58.8732">
		<stop  offset="0.0205" style="stop-color:#FFF326"/>
		<stop  offset="0.4974" style="stop-color:#88C866"/>
		<stop  offset="1" style="stop-color:#1DBECD"/>
	</linearGradient>
	<circle class="st2" cx="109.7" cy="58.87" r="6.25"/>
	<linearGradient id="SVGID_3_" gradientUnits="userSpaceOnUse" x1="101.6826" y1="94.0989" x2="145.9688" y2="94.0989">
		<stop  offset="0" style="stop-color:#FFF326"/>
		<stop  offset="0.4974" style="stop-color:#88C866"/>
		<stop  offset="1" style="stop-color:#1DBECD"/>
	</linearGradient>
	<circle class="st3" cx="140.56" cy="94.1" r="6.25"/>
</g>
<g>
	<path d="M309.62,43.03v10.91h-5.92v-5.38h-14.68v5.38h-5.92V43.03h2.84c0.31-1.77,0.46-4.3,0.46-7.92V25.5h20.14v17.52H309.62z
		 M300.47,43.18v-12.3h-8.07v4.46c0,3-0.15,5.69-0.46,7.84H300.47z"/>
	<path d="M311.85,37.03c0-7.15,4.84-11.91,12.07-11.91c7.3,0,12.07,4.69,12.07,11.91c0,7.15-4.84,11.91-12.07,11.91
		C316.62,48.95,311.85,44.26,311.85,37.03z M329.68,37.03c0-4.3-2.23-6.84-5.76-6.84c-3.54,0-5.76,2.54-5.76,6.84
		c0,4.3,2.23,6.84,5.76,6.84C327.45,43.87,329.68,41.34,329.68,37.03z"/>
	<path d="M339.06,37.03c0-7.15,4.77-11.91,11.91-11.91c5.3,0,9.38,2.54,10.68,6.92l-5.84,1.77c-0.84-2.31-2.54-3.61-4.92-3.61
		c-3.38,0-5.53,2.61-5.53,6.84c0,4.23,2.15,6.84,5.53,6.84c2.38,0,4.07-1.31,4.92-3.61l5.84,1.77c-1.31,4.38-5.38,6.92-10.68,6.92
		C343.83,48.95,339.06,44.18,339.06,37.03z"/>
	<path d="M384.95,31.04h-7.99v17.52h-6.15V31.04h-7.99V25.5h22.14V31.04z"/>
	<path d="M411.62,25.5l-7.99,23.06c-1.84,5.23-4.84,8.07-9.07,8.07c-5.69,0-7.61-3.77-7.84-7.3l5.76-1c0.08,1.84,0.69,3,2.23,3
		c0.92,0,1.61-0.54,2.31-1.61L386.18,25.5h6.76l6.99,17.37l5.23-17.37H411.62z"/>
	<path d="M436.6,48.56h-6.15V31.04h-9.07v17.52h-6.15V25.5h21.37V48.56z"/>
	<path d="M464.27,25.5v23.06h-6.15v-8.99h-9.07v8.99h-6.15V25.5h6.15v8.53h9.07V25.5H464.27z"/>
	<path d="M470.73,17.36h6.61v5.23h-6.61V17.36z M470.96,25.5h6.15v23.06h-6.15V25.5z"/>
	<path d="M294.25,86.03l-3,2.92v6.84h-6.15V72.73h6.15v9.22l8.76-9.22h7.69l-9.15,9.07l9.45,13.99h-7.22L294.25,86.03z"/>
	<path d="M334.6,84.26c0,7.15-4,11.91-9.84,11.91c-3,0-5.38-1.15-7.15-3.08v10.38h-6.15V72.73H317l0.31,3.23
		c1.77-2.31,4.3-3.61,7.46-3.61C330.76,72.35,334.6,77.03,334.6,84.26z M328.38,84.26c0-4.23-2.08-6.84-5.53-6.84
		s-5.46,2.61-5.46,6.84c0,4.23,2,6.84,5.46,6.84S328.38,88.48,328.38,84.26z"/>
	<path d="M349.82,91.1c2.77,0,4.84-1,6.3-2.61l3.77,3.69c-2.31,2.46-5.69,4-10.15,4c-7.99,0-12.07-5.07-12.07-11.91
		c0-7.07,4.61-11.91,11.68-11.91c6.99,0,11.45,4.69,11.45,11.91c0,0.46,0,0.92-0.23,2h-16.83C344.36,89.33,346.52,91.1,349.82,91.1z
		 M343.83,81.8h10.84c-0.61-2.92-2.46-4.53-5.3-4.53S344.52,78.95,343.83,81.8z"/>
	<path d="M389.33,90.25v10.91h-5.92v-5.38h-14.68v5.38h-5.92V90.25h2.84c0.31-1.77,0.46-4.3,0.46-7.92v-9.61h20.14v17.52H389.33z
		 M380.18,90.41v-12.3h-8.07v4.46c0,3-0.15,5.69-0.46,7.84H380.18z"/>
	<path d="M415.31,72.73v23.06h-6V81.57l-9.45,14.22h-6.07V72.73h6v14.22l9.45-14.22H415.31z"/>
	<path d="M441.37,78.26h-7.99v17.52h-6.15V78.26h-7.99v-5.53h22.14V78.26z"/>
	<path d="M466.81,72.73v23.06h-6V81.57l-9.45,14.22h-6.07V72.73h6v14.22l9.45-14.22H466.81z"/>
</g>
</svg>
