<?xml version="1.0" encoding="utf-8"?>
<!-- Generator: Adobe Illustrator 23.0.2, SVG Export Plug-In . SVG Version: 6.00 Build 0)  -->
<svg version="1.1" id="Layer_1" xmlns="http://www.w3.org/2000/svg" xmlns:xlink="http://www.w3.org/1999/xlink" x="0px" y="0px"
	 viewBox="0 0 156.51 136.71" style="enable-background:new 0 0 156.51 136.71;" xml:space="preserve">
<style type="text/css">
	.st0{fill:url(#SVGID_1_);}
	.st1{fill:url(#SVGID_2_);}
	.st2{fill:url(#SVGID_3_);}
	.st3{fill:url(#SVGID_4_);}
	.st4{fill:url(#SVGID_5_);}
	.st5{fill:url(#SVGID_6_);}
	.st6{fill:url(#SVGID_7_);}
	.st7{fill:url(#SVGID_8_);}
	.st8{fill:url(#SVGID_9_);}
	.st9{fill:url(#SVGID_10_);}
	.st10{fill:url(#SVGID_11_);}
	.st11{fill:url(#SVGID_12_);}
	.st12{fill:url(#SVGID_13_);}
	.st13{fill:url(#SVGID_14_);}
	.st14{fill:url(#SVGID_15_);}
	.st15{fill:url(#SVGID_16_);}
	.st16{fill:url(#SVGID_17_);}
	.st17{fill:url(#SVGID_18_);}
	.st18{fill:url(#SVGID_19_);}
	.st19{fill:url(#SVGID_20_);}
	.st20{fill:url(#SVGID_21_);}
	.st21{fill:url(#SVGID_22_);}
	.st22{fill:url(#SVGID_23_);}
	.st23{fill:url(#SVGID_24_);}
	.st24{fill:url(#SVGID_25_);}
	.st25{fill:url(#SVGID_26_);}
	.st26{fill:url(#SVGID_27_);}
	.st27{fill:url(#SVGID_28_);}
	.st28{fill:url(#SVGID_29_);}
	.st29{fill:url(#SVGID_30_);}
	.st30{fill:url(#SVGID_31_);}
	.st31{fill:url(#SVGID_32_);}
	.st32{fill:url(#SVGID_33_);}
	.st33{fill:url(#SVGID_34_);}
</style>
<g>
	<linearGradient id="SVGID_1_" gradientUnits="userSpaceOnUse" x1="-38.2062" y1="60.2028" x2="50.5027" y2="150.4307">
		<stop  offset="4.528621e-07" style="stop-color:#0D1F4D"/>
		<stop  offset="0.7251" style="stop-color:#1C4083"/>
		<stop  offset="1" style="stop-color:#184894"/>
	</linearGradient>
	<path class="st0" d="M28.86,129.53h-2.01v-14.67h-6.01l-0.28,3.12c-0.19,2.05-0.43,3.81-0.73,5.26s-0.62,2.61-0.97,3.44
		c-0.35,0.84-0.75,1.48-1.22,1.94c-0.46,0.46-0.92,0.74-1.36,0.85c-0.44,0.11-0.95,0.13-1.51,0.05l0.02-2.01
		c0.33,0.05,0.62,0.02,0.85-0.08s0.5-0.34,0.8-0.72c0.33-0.39,0.63-0.99,0.9-1.77c0.63-1.77,1.09-4.65,1.37-8.66l0.24-3.31h9.91
		V129.53z"/>
	<linearGradient id="SVGID_2_" gradientUnits="userSpaceOnUse" x1="-26.5303" y1="48.7235" x2="62.1786" y2="138.9514">
		<stop  offset="4.528621e-07" style="stop-color:#0D1F4D"/>
		<stop  offset="0.7251" style="stop-color:#1C4083"/>
		<stop  offset="1" style="stop-color:#184894"/>
	</linearGradient>
	<path class="st1" d="M45.78,129.53h-2.01v-16.56h2.01V129.53z"/>
	<linearGradient id="SVGID_3_" gradientUnits="userSpaceOnUse" x1="-16.572" y1="38.9329" x2="72.1369" y2="129.1607">
		<stop  offset="4.528621e-07" style="stop-color:#0D1F4D"/>
		<stop  offset="0.7251" style="stop-color:#1C4083"/>
		<stop  offset="1" style="stop-color:#184894"/>
	</linearGradient>
	<path class="st2" d="M64.57,129.77c-1.15,0-2.22-0.24-3.21-0.73c-0.99-0.49-1.72-1.11-2.21-1.87l1.11-1.35
		c0.52,0.62,1.17,1.11,1.95,1.49c0.78,0.38,1.53,0.57,2.24,0.57c1.14,0,2.05-0.28,2.73-0.85c0.69-0.57,1.03-1.34,1.03-2.32
		c0-0.82-0.28-1.47-0.85-1.96c-0.57-0.49-1.36-0.73-2.39-0.73h-1.92v-1.89h1.77c0.73,0,1.36-0.26,1.92-0.78
		c0.55-0.55,0.83-1.22,0.83-2.01c0-0.85-0.28-1.51-0.83-1.99c-0.55-0.47-1.28-0.71-2.18-0.71c-1.47,0-2.72,0.62-3.76,1.85
		l-1.18-1.32c0.57-0.76,1.31-1.35,2.22-1.78s1.89-0.64,2.93-0.64c1.47,0,2.63,0.39,3.5,1.17c0.87,0.78,1.3,1.86,1.3,3.23
		c0,0.77-0.21,1.5-0.63,2.19c-0.42,0.69-1.01,1.22-1.76,1.6v0.07c0.96,0.19,1.71,0.63,2.24,1.34c0.53,0.7,0.79,1.56,0.79,2.57
		c0,1.5-0.55,2.68-1.66,3.55C67.46,129.33,66.13,129.77,64.57,129.77z"/>
	<linearGradient id="SVGID_4_" gradientUnits="userSpaceOnUse" x1="-3.1547" y1="25.7415" x2="85.5541" y2="115.9693">
		<stop  offset="4.528621e-07" style="stop-color:#0D1F4D"/>
		<stop  offset="0.7251" style="stop-color:#1C4083"/>
		<stop  offset="1" style="stop-color:#184894"/>
	</linearGradient>
	<path class="st3" d="M95.66,116.28L85.6,129.53h-1.77v-16.56h2.01v13.25l10.06-13.25h1.77v16.56h-2.01V116.28z"/>
	<linearGradient id="SVGID_5_" gradientUnits="userSpaceOnUse" x1="11.042" y1="11.7838" x2="99.7508" y2="102.0116">
		<stop  offset="4.528621e-07" style="stop-color:#0D1F4D"/>
		<stop  offset="0.7251" style="stop-color:#1C4083"/>
		<stop  offset="1" style="stop-color:#184894"/>
	</linearGradient>
	<path class="st4" d="M125.23,129.53h-2.01v-7.5h-9.11v7.5h-2.01v-16.56h2.01v7.17h9.11v-7.17h2.01V129.53z"/>
	<linearGradient id="SVGID_6_" gradientUnits="userSpaceOnUse" x1="24.0653" y1="-1.0203" x2="112.7741" y2="89.2076">
		<stop  offset="4.528621e-07" style="stop-color:#0D1F4D"/>
		<stop  offset="0.7251" style="stop-color:#1C4083"/>
		<stop  offset="1" style="stop-color:#184894"/>
	</linearGradient>
	<path class="st5" d="M141.67,129.53h-2.01v-16.56h9.23v1.89h-7.22V129.53z"/>
</g>
<g>
	<linearGradient id="SVGID_7_" gradientUnits="userSpaceOnUse" x1="27.5466" y1="-4.443" x2="116.2555" y2="85.7849">
		<stop  offset="4.528621e-07" style="stop-color:#0D1F4D"/>
		<stop  offset="0.7251" style="stop-color:#1C4083"/>
		<stop  offset="1" style="stop-color:#184894"/>
	</linearGradient>
	<path class="st6" d="M108.25,77.91c0.28-0.31,0.47-0.72,0.59-1.16c-0.34,0.88-0.8,1.41-1.23,1.73
		C107.78,78.35,108,78.18,108.25,77.91z"/>
	<linearGradient id="SVGID_8_" gradientUnits="userSpaceOnUse" x1="27.9152" y1="-4.8053" x2="116.624" y2="85.4225">
		<stop  offset="4.528621e-07" style="stop-color:#0D1F4D"/>
		<stop  offset="0.7251" style="stop-color:#1C4083"/>
		<stop  offset="1" style="stop-color:#184894"/>
	</linearGradient>
	<path class="st7" d="M100.89,68.05c-0.02,0.01-0.04,0.01-0.06,0.02c-0.03,0.01-0.06,0.02-0.1,0.03c-0.02,0.01-0.04,0.01-0.05,0.02
		c-0.03,0.01-0.05,0.02-0.08,0.03c-0.15,0.05-0.33,0.11-0.52,0.18c-0.02,0.01-0.05,0.02-0.07,0.03c-0.03,0.01-0.05,0.02-0.08,0.03
		c-0.03,0.01-0.05,0.02-0.08,0.03c-0.01,0-0.02,0.01-0.03,0.01c-0.02,0.01-0.04,0.01-0.05,0.02c-0.07,0.03-0.15,0.06-0.23,0.1
		c-0.02,0.01-0.03,0.02-0.05,0.02c-0.01,0-0.01,0-0.02,0.01c-0.01,0.01-0.02,0.01-0.03,0.02h0c-0.06,0.02-0.12,0.05-0.18,0.08
		c-0.04,0.02-0.09,0.04-0.14,0.06c-0.04,0.02-0.09,0.04-0.14,0.06l0,0c-0.03,0.02-0.06,0.03-0.09,0.04h0v0h0c0,0.03,0,0.06,0,0.09
		c0.65-0.4,1.39-0.69,2.15-0.92C100.99,68.02,100.94,68.03,100.89,68.05z"/>
	<linearGradient id="SVGID_9_" gradientUnits="userSpaceOnUse" x1="27.589" y1="-4.4846" x2="116.2978" y2="85.7432">
		<stop  offset="4.528621e-07" style="stop-color:#0D1F4D"/>
		<stop  offset="0.7251" style="stop-color:#1C4083"/>
		<stop  offset="1" style="stop-color:#184894"/>
	</linearGradient>
	<path class="st8" d="M98.88,68.84L98.88,68.84L98.88,68.84L98.88,68.84z M99.46,68.57c-0.01,0.01-0.02,0.01-0.03,0.02
		c0.02-0.01,0.03-0.02,0.05-0.02C99.47,68.57,99.47,68.57,99.46,68.57z M99.84,68.41c0.03-0.01,0.05-0.02,0.08-0.03
		c0.03-0.01,0.05-0.02,0.08-0.03C99.95,68.37,99.9,68.39,99.84,68.41z"/>
	<linearGradient id="SVGID_10_" gradientUnits="userSpaceOnUse" x1="19.7302" y1="3.2419" x2="108.439" y2="93.4697">
		<stop  offset="4.528621e-07" style="stop-color:#0D1F4D"/>
		<stop  offset="0.7251" style="stop-color:#1C4083"/>
		<stop  offset="1" style="stop-color:#184894"/>
	</linearGradient>
	<path class="st9" d="M120.2,66.12c-5.9-0.36-10.44-4.43-10.33-9.27l0.56-24.46c0,0,3.37,0.93,8.43,2.32
		c-0.66-1.18-1.36-2.32-2.12-3.43c-0.19-0.27-0.37-0.54-0.57-0.81l-9.34-3.22l-0.05-0.02l-33.16,4.71
		c-2.42,0.34-4.64,1.49-6.29,3.26l-7.54,5.87c0.36-0.04,4.88-2.62,7.9-4.37c1.86-1.07,3.91-1.81,6.03-2.16
		c4.31-0.71,7.88-1.04,10.84-1.07l-8.89,4.83l10.61-4.01c1.35-0.51,2.81-0.65,4.23-0.39c9.29,1.72,8.24,8.04,8.26,11.14l0.03,16.33
		c0,1.65-1.07,3.13-2.66,3.65l-2.52,0.83l2.28,0.07c1.62,0.05,2.92,1.33,2.98,2.91h0c0.03-0.02,0.06-0.03,0.09-0.04l0,0
		c0.05-0.02,0.09-0.04,0.14-0.06c0.05-0.02,0.09-0.04,0.14-0.06c0.06-0.03,0.12-0.05,0.18-0.08h0c0.01-0.01,0.02-0.01,0.03-0.02
		c0.01,0,0.01-0.01,0.02-0.01c0.02-0.01,0.03-0.02,0.05-0.02c0.08-0.03,0.16-0.07,0.23-0.1c0.02-0.01,0.04-0.02,0.05-0.02
		c0.01,0,0.02-0.01,0.03-0.01c0.05-0.02,0.11-0.04,0.16-0.06c0.03-0.01,0.05-0.02,0.07-0.03c0.2-0.07,0.37-0.13,0.52-0.18
		c0.03-0.01,0.05-0.02,0.08-0.03c0.02-0.01,0.04-0.01,0.05-0.02c0.04-0.01,0.07-0.02,0.1-0.03c0.02-0.01,0.04-0.01,0.06-0.02
		c0.05-0.02,0.1-0.03,0.14-0.04c0.02-0.01,0.04-0.01,0.05-0.02c0.03-0.01,0.05-0.02,0.06-0.02h0c0,0,0,0,0,0
		c1.96-0.56,4.01-0.62,4.87-0.62c0.26,0,0.42,0.01,0.42,0.01c-5.83,0.37-7.92,6.64-7,10.25l-24.48-0.02
		c-0.01,0.04-0.03,0.17-0.05,0.35c-0.1,0.92,0.64,1.72,1.59,1.71l23.52-0.3l0.46,1.38l-4.61,0.19l-18.06,0.76l0-0.06l-5.65,0.24
		c0.09-0.13,0.13-0.23,0.14-0.26l0.9-1.87h0.03c0.03-0.25,0.09-0.48,0.16-0.72l-0.01,0.01c0.11-0.76,0.29-2.27,0.29-4
		c0-1.84-0.21-3.44-0.61-4.75c-0.98-3.18-4.04-3.53-5.31-3.53c-0.37,0-0.6,0.03-0.6,0.03c-0.03,0-0.23,0.03-0.53,0.12
		c-0.28,0.12-0.55,0.23-0.84,0.33c-0.58,0.28-1.3,0.75-2.03,1.49c0.15-0.25,0.33-0.5,0.51-0.74c-0.19,0.16-0.38,0.31-0.58,0.46
		c-0.14,0.1-0.29,0.12-0.42,0.08c-0.57,0.92-0.94,1.82-1.09,2.23c-0.04,0.17-0.1,0.32-0.18,0.47l-0.65,1.66l-12.41,0.15l9.77-0.69
		c0.1-0.13,0.18-0.26,0.25-0.41c0.01-0.02,0.02-0.05,0.04-0.07c0.11-0.18,0.25-0.34,0.4-0.48c0.25-1.13,0.94-3.68,2.13-3.88h-1.24
		c-0.05,0.05-0.13,0.08-0.22,0.08c-0.04,0-0.07-0.01-0.1-0.01c-0.05,0.04-0.12,0.06-0.2,0.06c-0.64-0.03-1.15-0.44-1.64-0.79
		c-0.07,0.01-0.13,0.04-0.18,0.08c-0.33-0.09-0.7-0.12-1.13-0.07c-0.32,0.04-0.63,0.07-0.95,0.12c-0.01,0.09-0.06,0.17-0.16,0.23
		c-0.38,0.23-0.78,0.47-1.18,0.68c0.07-0.02,0.15-0.02,0.22,0.01c0.49-0.15,1-0.22,1.53-0.29c0.08-0.01,0.16-0.02,0.24-0.04
		c-0.57,0.22-1.01,0.9-1.14,1.75c-0.03-0.04-0.05-0.06-0.09-0.09c0.01-0.01,0.02-0.02,0.03-0.03c0.06-0.12,0.05-0.24-0.01-0.34
		c-0.02,0.02-0.03,0.03-0.05,0.04c-0.16,0.1-0.37,0.02-0.47-0.12c0-0.01-0.01-0.01-0.01-0.01c0,0,0,0,0,0
		c-0.02-0.02-0.03-0.04-0.05-0.05c-0.03-0.03-0.06-0.06-0.09-0.08c-0.01,0-0.01,0-0.01-0.01c0,0,0,0-0.01,0
		c-0.02-0.01-0.03-0.02-0.05-0.04c-0.04-0.03-0.07-0.05-0.11-0.08c0,0-0.01,0-0.01-0.01c-0.01,0.03-0.01,0.05-0.01,0.09
		c-0.19-0.17-0.4-0.26-0.63-0.26c-0.26,0-0.51,0.13-0.71,0.34c-0.3,0.48-0.51,1.02-0.64,1.63c-0.02,0.12-0.09,0.19-0.17,0.22
		c0,0.32,0.01,0.63,0.01,0.95c0,0.3-0.32,0.39-0.52,0.28c-0.05,0.05-0.09,0.12-0.1,0.2c-0.36-0.27-0.62-0.67-0.74-1.11h-1.58
		l-0.73,0.87c-0.23,0.42-0.52,0.8-0.82,1.2c-0.07,0.1-0.18,0.14-0.28,0.14c0,0-0.01,0.01-0.01,0.01c-0.78,0.38-1.5,0.22-2.31,0.02
		c-1.03-0.25-2.02,0-3.06-0.04c-2.39-0.08-4.77,0.06-7.17,0c-0.05,0-0.1-0.01-0.15-0.03c-0.02,0.01-0.03,0.02-0.05,0.02
		c-0.29,0.1-0.59,0.05-0.86-0.07c-0.15,0.09-0.37,0.09-0.5-0.08c-0.5-0.65-0.34-1.52-0.22-2.27c0.15-0.98,0.26-2.12-0.06-3.1
		c-0.04-0.01-0.09-0.03-0.12-0.07c-0.22-0.17-0.45-0.02-0.69,0.02c-0.09,0.02-0.16,0.02-0.24,0.02l-1.06,0.56l-1.05,2.94l-1.13,2.09
		c-0.26,0.49,0.1,1.07,0.66,1.07h3.37l-3.28,0.46c-0.68,0.1-1.18,0.67-1.18,1.34v2.28h2.5l2.32,4.08l0.03,0.05
		c0.03,0.03,0.54,0.58,1.45,1.15l-4.14,0.17h0c-0.75,0.03-0.8,1.12-0.06,1.23l21.1,2.92c14.08,1.95,28.36,1.93,42.42-0.07
		l18.78-2.66c0.09-0.1,0.18-0.19,0.27-0.29c2.57-2.84,4.77-6.01,6.52-9.45c0.22-0.43,0.43-0.86,0.64-1.3
		c1.13-2.42,2.05-4.96,2.72-7.6c0.01-0.04,0.02-0.08,0.03-0.12L120.2,66.12z M105.5,63.65h-0.4v-28.2c0-0.42-1.79-0.18-1.79-0.18
		v27.05l1.02,1.09v0.25h-0.91c0.19,3.14-2.27,2.82-2.27,2.82v-1.22c0.84-0.21,0.97-1.11,0.98-1.6c-0.27,0-0.51-0.11-0.69-0.28
		c-0.18-0.18-0.29-0.42-0.29-0.68V35.47c0-0.55,0.45-0.99,1-0.99v-0.97c0-0.87,0.48-1.67,1.25-2.09l0.54-0.3
		c0.37-0.2,0.82,0.06,0.82,0.47v0.72c0,0.24-0.13,0.46-0.33,0.58c-0.6,0.36-0.75,0.86-0.75,1.49c0,0.03,0,0.06,0,0.09
		c1.01,0,1.82,0.8,1.82,1.79V63.65z M57.29,72.43c0.04-0.01,0.07-0.02,0.1-0.03l0.03,0.03C57.37,72.43,57.33,72.43,57.29,72.43z
		 M57.42,67.47c0.49,0.04,0.83,0.28,1.16,0.57c0.11,0.7,0.22,1.91-0.11,2.56c-0.02-0.02-0.04-0.03-0.06-0.05
		c0.05-0.23,0.08-0.48,0.08-0.74c0-0.88-0.33-1.65-0.82-2.05c-0.07-0.05-0.15-0.1-0.23-0.15c0,0-0.01-0.01-0.01-0.01
		c-0.15-0.08-0.3-0.12-0.46-0.13C57.12,67.47,57.27,67.46,57.42,67.47z M55.55,69.53c0.02,0.13,0.06,0.26,0.12,0.38
		c0.02,0.05,0.06,0.08,0.1,0.11c0.12,0.41,0.29,0.61,0.31,0.63c-0.07-0.19-0.1-0.39-0.12-0.58c0.03,0,0.05,0,0.08-0.01
		c-0.01-0.02-0.01-0.05-0.01-0.08v-0.51c0-0.12,0.07-0.23,0.17-0.29c0.01-0.09,0.03-0.19,0.07-0.27c0.04-0.09,0.05-0.19,0.03-0.27
		c0.07-0.1,0.11-0.11,0.09,0.01c-0.03,0.17-0.01,0.34,0.03,0.49c0.05,0.01,0.1,0.03,0.15,0.06c0.15-0.84,1.5-0.9,1.66,0.03
		c0.03,0.18,0.05,0.36,0.05,0.56v0.05c0.04,0.07,0.07,0.15,0.05,0.25c-0.07,0.36-0.23,0.67-0.47,0.92
		c-0.03,0.07-0.07,0.14-0.14,0.19c-0.01-0.01-0.03-0.01-0.04-0.02c-0.09,0.07-0.18,0.14-0.27,0.2c-0.1,0.06-0.19,0.06-0.27,0.04
		c-0.22,0.11-0.43,0.08-0.63-0.02c-0.15-0.11-0.3-0.25-0.44-0.37c-0.19-0.22-0.36-0.51-0.49-0.77c-0.02-0.15-0.03-0.31-0.03-0.47
		C55.54,69.72,55.54,69.62,55.55,69.53z M55.41,71.7c0.08-0.01,0.15-0.04,0.21-0.09c0.05,0.04,0.09,0.08,0.14,0.12
		c0.07,0.05,0.13,0.1,0.21,0.14l0.08,0.07c-0.16,0-0.33,0.01-0.5,0c-0.05,0-0.1,0-0.14,0c-0.03-0.01-0.07-0.03-0.1-0.04
		c0,0,0,0-0.01,0C55.34,71.83,55.38,71.77,55.41,71.7z M52.79,69.5c0,0.89,0.32,1.26,0.34,1.29c-0.11-0.3-0.11-0.6-0.07-0.86
		c0.11,0.32,0.4,0.57,0.7,0.78c0.11,0.07,0.24,0.05,0.34-0.01c-0.05-0.04-0.09-0.1-0.11-0.17c-0.02-0.07-0.04-0.14-0.05-0.21
		c-0.01-0.03-0.01-0.05-0.02-0.08c0-0.01-0.01-0.02-0.01-0.03c0,0,0.01,0.01,0.01,0.01c-0.07-0.14-0.05-0.29,0.05-0.4
		c-0.01-0.03-0.01-0.07-0.01-0.11c0.02-0.17,0.08-0.35,0.15-0.52c0.01,0.01,0.02,0.02,0.03,0.03c0.08,0.07,0.15,0.15,0.23,0.22
		c0.08,0.08,0.2,0.11,0.31,0.09c0,0.02,0,0.04,0,0.06c0.02,0.13,0.04,0.28,0.08,0.42c0,0.23,0,0.46,0.03,0.69
		c-0.08,0.34-0.23,0.62-0.43,0.82c-0.07,0.02-0.12,0.07-0.16,0.13c-0.1,0.06-0.2,0.11-0.31,0.12c-0.22-0.07-0.41-0.19-0.58-0.36
		c0.02-0.08,0.01-0.16-0.03-0.23c-0.06-0.09-0.12-0.19-0.17-0.28c0.01-0.07-0.01-0.14-0.06-0.21c-0.17-0.22-0.27-0.57-0.3-0.92
		C52.75,69.69,52.76,69.59,52.79,69.5z M31.64,70.77c-0.03-0.01-0.05-0.02-0.08-0.03c0,0,0,0,0,0c-0.01-0.01-0.02-0.01-0.03-0.02
		c-0.01-0.01-0.03-0.01-0.04-0.02l-0.19-0.09c-0.08-0.04-0.13-0.11-0.15-0.19h-0.01l0-0.02c0-0.02-0.01-0.03-0.01-0.05
		c-0.08-0.15-0.11-0.31-0.09-0.5c0.01-0.08,0.04-0.16,0.09-0.21c0.01-0.17,0.04-0.34,0.1-0.51c0.04-0.11,0.12-0.18,0.21-0.21
		c0.08-0.16,0.2-0.3,0.34-0.38c-0.1,0.1-0.18,0.22-0.24,0.36c0.21-0.01,0.44,0.16,0.35,0.41c-0.07,0.2-0.11,0.41-0.04,0.62
		c0.02,0.07,0.02,0.14,0,0.19c0.02,0.01,0.04,0.02,0.06,0.03C32.25,70.32,32,70.9,31.64,70.77z M32.91,67.6v0.65
		c-0.19-0.17-0.41-0.27-0.65-0.31L32.91,67.6z M32.52,69.91c-0.2,0-0.36-0.22-0.36-0.48c0-0.26,0.16-0.48,0.36-0.48
		c0.2,0,0.36,0.22,0.36,0.48C32.88,69.69,32.72,69.91,32.52,69.91z M55.04,82.64l-11.13,0.47c1.24-0.87,1.61-1.78,1.72-2.2
		l12.29-0.16c0.18,0.28,0.68,0.97,1.48,1.71L55.04,82.64z M61.51,77.59H33.96l-2.08-0.53l28.73-0.65l0.9-2.44V77.59z M67.57,81.16
		c-2.15,0-3.9-2.58-3.9-5.76c0-3.18,1.75-5.76,3.9-5.76c2.15,0,3.9,2.58,3.9,5.76C71.47,78.58,69.72,81.16,67.57,81.16z
		 M108.63,78.24c-0.56,0.62-1.11,0.94-1.6,0.94c-0.48,0-0.73-0.3-0.75-0.33l-0.29-0.37l0.47-0.04c0.1-0.01,2.57-0.3,2.34-5.5
		l0.51-0.06C109.34,73.03,110.1,76.63,108.63,78.24z M116.19,77.74c-0.76,0.69-1.46,1.03-2.1,1.03c-0.58,0-0.88-0.3-0.92-0.33
		l-0.37-0.38l0.53-0.04c0.15-0.01,3.55-0.37,3.32-6.18l-0.1-2.47l0.61,2.4C117.21,71.94,118.19,75.93,116.19,77.74z"/>
	<linearGradient id="SVGID_11_" gradientUnits="userSpaceOnUse" x1="31.8137" y1="-8.6383" x2="120.5226" y2="81.5896">
		<stop  offset="4.528621e-07" style="stop-color:#0D1F4D"/>
		<stop  offset="0.7251" style="stop-color:#1C4083"/>
		<stop  offset="1" style="stop-color:#184894"/>
	</linearGradient>
	<path class="st10" d="M116.89,74.91c-0.55,2.07-1.74,2.96-2.59,3.34c0.35-0.06,0.87-0.27,1.54-0.88
		C116.51,76.76,116.8,75.83,116.89,74.91z"/>
	<linearGradient id="SVGID_12_" gradientUnits="userSpaceOnUse" x1="6.8891" y1="15.8667" x2="95.5979" y2="106.0946">
		<stop  offset="4.528621e-07" style="stop-color:#0D1F4D"/>
		<stop  offset="0.7251" style="stop-color:#1C4083"/>
		<stop  offset="1" style="stop-color:#184894"/>
	</linearGradient>
	<path class="st11" d="M50.51,56.63l-0.12,1.21c0.1,0.65,0.1,1.31,0.01,1.96v0.01c0,0,0,0,0,0c0,0.03-0.01,0.06-0.01,0.09
		c-0.01,0.06-0.03,0.1-0.06,0.14c-0.44,2.28-0.45,4.58-0.81,6.87c-0.1,0.66-0.18,1.34-0.26,2.01l-0.19,1.81l1.85,0.08
		c-0.09-0.32-0.09-0.66,0-0.98c-0.12-0.2-0.15-0.45-0.08-0.68c-0.01-0.36,0.1-0.7,0.28-1c0.11-0.35,0.31-0.66,0.61-0.88
		c0.02-0.03,0.05-0.06,0.07-0.09c0.22-0.26,3.46-2.76,3.56-2.83l-3.23,1.87c-0.76,0.44-1.71-0.14-1.66-1.01l0.33-4.83v0
		c0.37-2.38,1.95-4.41,4.19-5.37l1.49-0.64c-0.25,0.04-5.72,1.54-5.97,1.56l-6.32,0.36l-5.13,0.17c-0.55,0.02-0.89-0.39-0.93-0.82
		c-0.76,0.43-1.5,0.91-2.21,1.43l8.3-0.27L50.51,56.63z"/>
	<linearGradient id="SVGID_13_" gradientUnits="userSpaceOnUse" x1="7.9815" y1="14.7927" x2="96.6904" y2="105.0206">
		<stop  offset="4.528621e-07" style="stop-color:#0D1F4D"/>
		<stop  offset="0.7251" style="stop-color:#1C4083"/>
		<stop  offset="1" style="stop-color:#184894"/>
	</linearGradient>
	<path class="st12" d="M66.55,80.41c0,0,2.13-1.15,1.88-4.38c0,0,0.6,1.15,0.43,2.19c-0.17,1.04,1.81-2,0.77-4.92
		c0,0,1.1,1.17,1.09,4.08c0.16-0.61,0.25-1.28,0.25-1.98c0-2.9-1.52-5.26-3.39-5.26c-1.87,0-3.39,2.36-3.39,5.26
		C64.18,77.75,65.18,79.74,66.55,80.41z"/>
	<linearGradient id="SVGID_14_" gradientUnits="userSpaceOnUse" x1="2.1061" y1="20.5692" x2="90.815" y2="110.7971">
		<stop  offset="4.528621e-07" style="stop-color:#0D1F4D"/>
		<stop  offset="0.7251" style="stop-color:#1C4083"/>
		<stop  offset="1" style="stop-color:#184894"/>
	</linearGradient>
	<polygon class="st13" points="54.09,77.08 61,77.08 61,76.83 60.97,76.91 	"/>
	<linearGradient id="SVGID_15_" gradientUnits="userSpaceOnUse" x1="-1.724" y1="24.3348" x2="86.9849" y2="114.5627">
		<stop  offset="4.528621e-07" style="stop-color:#0D1F4D"/>
		<stop  offset="0.7251" style="stop-color:#1C4083"/>
		<stop  offset="1" style="stop-color:#184894"/>
	</linearGradient>
	<path class="st14" d="M48.72,67.54c-0.08,0.01-0.16,0.02-0.26,0.03c-0.41,0.04-1.01,0.09-1.71,0.13c-0.35,0.02-0.74,0.04-1.15,0.06
		c-0.41,0.02-0.84,0.04-1.28,0.05c-0.44,0.01-0.9,0.03-1.37,0.03c-0.47,0-0.94,0.01-1.41,0.01c-0.47,0-0.95-0.01-1.41-0.01
		c-0.47,0-0.92-0.02-1.37-0.03c-0.44-0.01-0.87-0.03-1.28-0.05c-0.41-0.01-0.79-0.04-1.15-0.06c-0.71-0.04-1.3-0.09-1.71-0.13
		c-0.28-0.03-0.48-0.05-0.58-0.06l0.01,1.32c0.1-0.01,0.29-0.03,0.56-0.06c0.41-0.04,1-0.09,1.7-0.13c0.35-0.02,0.73-0.04,1.14-0.06
		c0.4-0.02,0.83-0.04,1.27-0.05c0.44-0.01,0.89-0.03,1.36-0.03c0.46,0,0.93-0.01,1.4-0.01c0.47,0,0.94,0.01,1.4,0.01
		c0.46,0,0.92,0.02,1.36,0.03c0.44,0.01,0.87,0.03,1.27,0.05c0.4,0.01,0.78,0.04,1.14,0.06c0.7,0.04,1.29,0.09,1.7,0.13
		c0.06,0.01,0.12,0.01,0.18,0.02C48.58,68.37,48.65,67.95,48.72,67.54z"/>
	<linearGradient id="SVGID_16_" gradientUnits="userSpaceOnUse" x1="-1.0011" y1="23.6241" x2="87.7078" y2="113.8519">
		<stop  offset="4.528621e-07" style="stop-color:#0D1F4D"/>
		<stop  offset="0.7251" style="stop-color:#1C4083"/>
		<stop  offset="1" style="stop-color:#184894"/>
	</linearGradient>
	<path class="st15" d="M48.9,66.41c0.01-0.07,0.02-0.15,0.03-0.22c-0.1,0.01-0.22,0.02-0.36,0.03c-0.42,0.04-1.01,0.09-1.73,0.13
		c-0.36,0.02-0.75,0.04-1.15,0.06c-0.41,0.02-0.84,0.04-1.29,0.05c-0.45,0.01-0.91,0.03-1.38,0.03c-0.47,0-0.95,0.01-1.42,0.01
		c-0.48,0-0.95-0.01-1.42-0.01c-0.47,0-0.93-0.02-1.38-0.03c-0.45-0.01-0.88-0.03-1.29-0.05c-0.41-0.01-0.8-0.04-1.15-0.06
		c-0.72-0.04-1.31-0.09-1.73-0.13c-0.3-0.03-0.5-0.05-0.6-0.06l0.01,1.33c0.1-0.01,0.3-0.03,0.58-0.06
		c0.41-0.04,1.01-0.09,1.71-0.13c0.35-0.02,0.74-0.04,1.15-0.06c0.41-0.02,0.84-0.04,1.28-0.05c0.44-0.01,0.9-0.03,1.37-0.03
		c0.47,0,0.94-0.01,1.41-0.01c0.47,0,0.95,0.01,1.41,0.01c0.47,0,0.92,0.02,1.37,0.03c0.44,0.01,0.87,0.03,1.28,0.05
		c0.41,0.01,0.79,0.04,1.15,0.06c0.71,0.04,1.3,0.09,1.71,0.13c0.11,0.01,0.2,0.02,0.28,0.03C48.79,67.11,48.85,66.76,48.9,66.41z"
		/>
	<linearGradient id="SVGID_17_" gradientUnits="userSpaceOnUse" x1="-3.8236" y1="26.3991" x2="84.8853" y2="116.6269">
		<stop  offset="4.528621e-07" style="stop-color:#0D1F4D"/>
		<stop  offset="0.7251" style="stop-color:#1C4083"/>
		<stop  offset="1" style="stop-color:#184894"/>
	</linearGradient>
	<path class="st16" d="M45.32,71.77c-0.4,0.02-0.82,0.04-1.25,0.05c-0.43,0.01-0.88,0.03-1.34,0.03c-0.45,0-0.92,0.01-1.38,0.01
		c-0.46,0-0.92-0.01-1.38-0.01c-0.45,0-0.9-0.02-1.34-0.03c-0.43-0.01-0.85-0.03-1.25-0.05c-0.4-0.01-0.77-0.04-1.12-0.06
		c-0.69-0.04-1.27-0.09-1.67-0.13c-0.24-0.02-0.42-0.04-0.53-0.05l0.01,0.74c0.02,0.01,0.04,0.02,0.06,0.03h4.94
		c0.63-0.01,1.25-0.01,1.88,0h1.59c0.62-0.04,1.24-0.12,1.85-0.08c0.17,0.01,0.33,0.04,0.5,0.08h2.48c0.17-0.24,0.32-0.46,0.45-0.69
		c-0.37,0.03-0.84,0.07-1.39,0.1C46.09,71.73,45.72,71.76,45.32,71.77z"/>
	<linearGradient id="SVGID_18_" gradientUnits="userSpaceOnUse" x1="-3.1598" y1="25.7465" x2="85.549" y2="115.9743">
		<stop  offset="4.528621e-07" style="stop-color:#0D1F4D"/>
		<stop  offset="0.7251" style="stop-color:#1C4083"/>
		<stop  offset="1" style="stop-color:#184894"/>
	</linearGradient>
	<path class="st17" d="M48.33,70.23c-0.03,0-0.07,0.01-0.11,0.01c-0.41,0.04-0.99,0.09-1.69,0.13c-0.35,0.02-0.73,0.04-1.13,0.06
		c-0.4,0.02-0.82,0.04-1.26,0.05c-0.44,0.01-0.89,0.03-1.35,0.03c-0.46,0-0.92,0.01-1.39,0.01c-0.47,0-0.93-0.01-1.39-0.01
		c-0.46,0-0.91-0.02-1.35-0.03c-0.44-0.01-0.86-0.03-1.26-0.05c-0.4-0.01-0.78-0.04-1.13-0.06c-0.7-0.04-1.28-0.09-1.69-0.13
		c-0.25-0.02-0.44-0.04-0.54-0.06l0.01,1.32c0.11-0.01,0.28-0.03,0.53-0.05c0.4-0.04,0.98-0.09,1.67-0.13
		c0.35-0.02,0.72-0.04,1.12-0.06c0.4-0.02,0.82-0.04,1.25-0.05c0.43-0.01,0.88-0.03,1.34-0.03c0.45,0,0.92-0.01,1.38-0.01
		c0.46,0,0.92,0.01,1.38,0.01c0.45,0,0.9,0.02,1.34,0.03c0.43,0.01,0.85,0.03,1.25,0.05c0.4,0.01,0.77,0.04,1.12,0.06
		c0.59,0.03,1.09,0.07,1.48,0.11C48.11,71.06,48.25,70.68,48.33,70.23z"/>
	<linearGradient id="SVGID_19_" gradientUnits="userSpaceOnUse" x1="-0.3027" y1="22.9374" x2="88.4062" y2="113.1653">
		<stop  offset="4.528621e-07" style="stop-color:#0D1F4D"/>
		<stop  offset="0.7251" style="stop-color:#1C4083"/>
		<stop  offset="1" style="stop-color:#184894"/>
	</linearGradient>
	<path class="st18" d="M49.05,64.85c-0.1,0.01-0.22,0.02-0.37,0.03c-0.42,0.04-1.02,0.09-1.74,0.13c-0.36,0.02-0.75,0.04-1.16,0.06
		c-0.41,0.02-0.85,0.04-1.3,0.05c-0.45,0.01-0.92,0.03-1.39,0.03c-0.47,0-0.95,0.01-1.43,0.01c-0.48,0-0.96-0.01-1.43-0.01
		c-0.47,0-0.94-0.02-1.39-0.03c-0.45-0.01-0.89-0.03-1.3-0.05c-0.41-0.01-0.8-0.04-1.16-0.06c-0.72-0.04-1.32-0.09-1.74-0.13
		c-0.31-0.03-0.52-0.05-0.61-0.06l0.01,1.33c0.09-0.01,0.3-0.03,0.6-0.06c0.42-0.04,1.01-0.09,1.73-0.13
		c0.36-0.02,0.75-0.04,1.15-0.06c0.41-0.02,0.84-0.04,1.29-0.05c0.45-0.01,0.91-0.03,1.38-0.03c0.47,0,0.95-0.01,1.42-0.01
		c0.48,0,0.95,0.01,1.42,0.01c0.47,0,0.93,0.02,1.38,0.03c0.45,0.01,0.88,0.03,1.29,0.05c0.41,0.01,0.8,0.04,1.15,0.06
		c0.72,0.04,1.31,0.09,1.73,0.13c0.15,0.01,0.27,0.03,0.37,0.04C48.99,65.7,49.02,65.27,49.05,64.85z"/>
	<linearGradient id="SVGID_20_" gradientUnits="userSpaceOnUse" x1="-2.4476" y1="25.0463" x2="86.2612" y2="115.2741">
		<stop  offset="4.528621e-07" style="stop-color:#0D1F4D"/>
		<stop  offset="0.7251" style="stop-color:#1C4083"/>
		<stop  offset="1" style="stop-color:#184894"/>
	</linearGradient>
	<path class="st19" d="M48.41,69.66c0.02-0.26,0.06-0.52,0.09-0.77c-0.05,0-0.11,0.01-0.16,0.02c-0.41,0.04-1,0.09-1.7,0.13
		c-0.35,0.02-0.73,0.04-1.14,0.06c-0.4,0.02-0.83,0.04-1.27,0.05c-0.44,0.01-0.89,0.03-1.36,0.03c-0.46,0-0.93,0.01-1.4,0.01
		c-0.47,0-0.94-0.01-1.4-0.01c-0.46,0-0.92-0.02-1.36-0.03c-0.44-0.01-0.87-0.03-1.27-0.05c-0.4-0.01-0.78-0.04-1.14-0.06
		c-0.7-0.04-1.29-0.09-1.7-0.13c-0.27-0.02-0.46-0.05-0.56-0.06l0.01,1.32c0.1-0.01,0.29-0.03,0.54-0.06
		c0.41-0.04,0.99-0.09,1.69-0.13c0.35-0.02,0.73-0.04,1.13-0.06c0.4-0.02,0.82-0.04,1.26-0.05c0.44-0.01,0.89-0.03,1.35-0.03
		c0.46,0,0.92-0.01,1.39-0.01c0.47,0,0.93,0.01,1.39,0.01c0.46,0,0.91,0.02,1.35,0.03c0.44,0.01,0.86,0.03,1.26,0.05
		c0.4,0.01,0.78,0.04,1.13,0.06c0.7,0.04,1.28,0.09,1.69,0.13c0.05,0,0.09,0.01,0.13,0.01C48.38,69.98,48.4,69.82,48.41,69.66z"/>
	<linearGradient id="SVGID_21_" gradientUnits="userSpaceOnUse" x1="1.8099" y1="20.8605" x2="90.5187" y2="111.0883">
		<stop  offset="4.528621e-07" style="stop-color:#0D1F4D"/>
		<stop  offset="0.7251" style="stop-color:#1C4083"/>
		<stop  offset="1" style="stop-color:#184894"/>
	</linearGradient>
	<path class="st20" d="M34.64,62.07c0.43-0.04,1.04-0.09,1.77-0.13c0.37-0.02,0.76-0.04,1.18-0.06c0.42-0.02,0.86-0.04,1.32-0.05
		c0.46-0.01,0.93-0.03,1.41-0.03c0.48,0,0.97-0.01,1.46-0.01c0.49,0,0.98,0.01,1.46,0.01c0.48,0,0.95,0.02,1.41,0.03
		c0.46,0.01,0.9,0.03,1.32,0.05c0.42,0.01,0.82,0.04,1.18,0.06c0.73,0.04,1.34,0.09,1.77,0.13c0.15,0.01,0.27,0.02,0.37,0.03
		c0.06-0.43,0.12-0.86,0.2-1.28c-0.11,0.01-0.26,0.03-0.45,0.04c-0.43,0.04-1.05,0.09-1.78,0.13c-0.37,0.02-0.77,0.04-1.19,0.06
		c-0.42,0.02-0.87,0.04-1.33,0.05c-0.46,0.01-0.94,0.03-1.42,0.03c-0.48,0-0.98,0.01-1.47,0.01c-0.49,0-0.98-0.01-1.47-0.01
		c-0.48,0-0.96-0.02-1.42-0.03c-0.46-0.01-0.91-0.03-1.33-0.05c-0.42-0.01-0.82-0.04-1.19-0.06c-0.74-0.04-1.35-0.09-1.78-0.13
		c-0.37-0.03-0.61-0.06-0.66-0.06l0.01,1.34C34.06,62.12,34.29,62.1,34.64,62.07z"/>
	<linearGradient id="SVGID_22_" gradientUnits="userSpaceOnUse" x1="0.3851" y1="22.2613" x2="89.0939" y2="112.4891">
		<stop  offset="4.528621e-07" style="stop-color:#0D1F4D"/>
		<stop  offset="0.7251" style="stop-color:#1C4083"/>
		<stop  offset="1" style="stop-color:#184894"/>
	</linearGradient>
	<path class="st21" d="M49.14,63.51c-0.09,0.01-0.21,0.02-0.34,0.03c-0.42,0.04-1.03,0.09-1.76,0.13c-0.36,0.02-0.76,0.04-1.17,0.06
		c-0.42,0.02-0.86,0.04-1.31,0.05c-0.45,0.01-0.92,0.03-1.4,0.03c-0.48,0-0.96,0.01-1.45,0.01c-0.48,0-0.97-0.01-1.45-0.01
		c-0.48,0-0.95-0.02-1.4-0.03c-0.45-0.01-0.89-0.03-1.31-0.05c-0.42-0.01-0.81-0.04-1.17-0.06c-0.73-0.04-1.33-0.09-1.76-0.13
		c-0.33-0.03-0.55-0.05-0.63-0.06l0.01,1.33c0.09-0.01,0.3-0.03,0.61-0.06c0.42-0.04,1.02-0.09,1.74-0.13
		c0.36-0.02,0.75-0.04,1.16-0.06c0.41-0.02,0.85-0.04,1.3-0.05c0.45-0.01,0.92-0.03,1.39-0.03c0.47,0,0.95-0.01,1.43-0.01
		c0.48,0,0.96,0.01,1.43,0.01c0.47,0,0.94,0.02,1.39,0.03c0.45,0.01,0.89,0.03,1.3,0.05c0.41,0.01,0.8,0.04,1.16,0.06
		c0.72,0.04,1.32,0.09,1.74,0.13c0.15,0.01,0.27,0.03,0.37,0.04C49.08,64.36,49.11,63.93,49.14,63.51z"/>
	<linearGradient id="SVGID_23_" gradientUnits="userSpaceOnUse" x1="3.3443" y1="19.3519" x2="92.0532" y2="109.5797">
		<stop  offset="4.528621e-07" style="stop-color:#0D1F4D"/>
		<stop  offset="0.7251" style="stop-color:#1C4083"/>
		<stop  offset="1" style="stop-color:#184894"/>
	</linearGradient>
	<path class="st22" d="M49.61,57.46c-0.13-0.03-0.26-0.05-0.39-0.1c-0.06-0.02-0.11-0.05-0.15-0.09h-5.34l-8.14,0.4
		c-0.02,0.02-0.04,0.04-0.06,0.05c-0.25,0.16-0.53,0.2-0.81,0.25c-0.18,0.14-0.36,0.28-0.53,0.43c-0.11,0.26-0.2,0.53-0.2,0.83
		c0,0.04-0.01,0.08-0.03,0.12v0.11c0.01,0,0.26-0.03,0.68-0.07c0.43-0.04,1.05-0.09,1.8-0.12c0.37-0.02,0.77-0.04,1.2-0.06
		c0.43-0.02,0.87-0.04,1.34-0.05c0.46-0.01,0.94-0.03,1.43-0.03c0.49-0.01,0.98-0.01,1.48-0.01c0.49,0,0.99,0.01,1.48,0.01
		c0.49,0,0.97,0.02,1.43,0.03c0.47,0.01,0.91,0.03,1.34,0.05c0.43,0.01,0.83,0.03,1.2,0.06c0.75,0.04,1.36,0.09,1.8,0.13
		c0.3,0.03,0.51,0.05,0.61,0.06C49.82,58.78,49.78,58.1,49.61,57.46z M49.2,58.71c-0.62-0.05-1.21-0.1-1.81-0.13
		c-0.36-0.02-0.78-0.04-1.21-0.06l-0.19-0.01c-0.37-0.01-0.76-0.03-1.16-0.04c-0.16,0-0.33-0.01-0.49-0.01
		c-0.31-0.01-0.63-0.02-0.95-0.02l-0.32-0.01l-1.16-0.01h-0.01l-1.01,0.01l-0.47,0.01c-0.33,0-0.64,0.01-0.95,0.02
		c-0.17,0-0.33,0.01-0.49,0.01c-0.38,0.01-0.74,0.02-1.09,0.03l-0.26,0.01c-0.44,0.02-0.85,0.04-1.21,0.06
		c-0.59,0.03-1.16,0.07-1.76,0.12v-0.32l9.1-0.44h5.52L49.2,58.71z"/>
	<linearGradient id="SVGID_24_" gradientUnits="userSpaceOnUse" x1="1.0881" y1="21.5701" x2="89.7969" y2="111.798">
		<stop  offset="4.528621e-07" style="stop-color:#0D1F4D"/>
		<stop  offset="0.7251" style="stop-color:#1C4083"/>
		<stop  offset="1" style="stop-color:#184894"/>
	</linearGradient>
	<path class="st23" d="M34.63,63.41c0.42-0.04,1.03-0.09,1.76-0.13c0.36-0.02,0.76-0.04,1.17-0.06c0.42-0.02,0.86-0.04,1.31-0.05
		c0.45-0.01,0.92-0.03,1.4-0.03c0.48,0,0.96-0.01,1.45-0.01c0.48,0,0.97,0.01,1.45,0.01c0.48,0,0.95,0.02,1.4,0.03
		c0.45,0.01,0.89,0.03,1.31,0.05c0.42,0.01,0.81,0.04,1.17,0.06c0.73,0.04,1.33,0.09,1.76,0.13c0.13,0.01,0.25,0.02,0.34,0.03
		c0.02-0.24,0.04-0.49,0.07-0.73c0.02-0.18,0.04-0.36,0.07-0.54c-0.1,0.01-0.22,0.02-0.36,0.03c-0.43,0.04-1.04,0.09-1.77,0.13
		c-0.37,0.02-0.76,0.04-1.18,0.06c-0.42,0.02-0.86,0.04-1.32,0.05c-0.46,0.01-0.93,0.03-1.41,0.03c-0.48,0-0.97,0.01-1.46,0.01
		c-0.49,0-0.98-0.01-1.46-0.01c-0.48,0-0.95-0.02-1.41-0.03c-0.46-0.01-0.9-0.03-1.32-0.05c-0.42-0.01-0.82-0.04-1.18-0.06
		c-0.73-0.04-1.34-0.09-1.77-0.13c-0.35-0.03-0.58-0.06-0.65-0.06l0.01,1.33C34.09,63.46,34.3,63.44,34.63,63.41z"/>
	<linearGradient id="SVGID_25_" gradientUnits="userSpaceOnUse" x1="2.5506" y1="20.1322" x2="91.2594" y2="110.3601">
		<stop  offset="4.528621e-07" style="stop-color:#0D1F4D"/>
		<stop  offset="0.7251" style="stop-color:#1C4083"/>
		<stop  offset="1" style="stop-color:#184894"/>
	</linearGradient>
	<path class="st24" d="M36.43,60.6c0.37-0.02,0.77-0.04,1.19-0.06c0.42-0.02,0.87-0.04,1.33-0.05c0.46-0.01,0.94-0.03,1.42-0.03
		c0.48,0,0.98-0.01,1.47-0.01c0.49,0,0.98,0.01,1.47,0.01c0.48,0,0.96,0.02,1.42,0.03c0.46,0.01,0.91,0.03,1.33,0.05
		c0.42,0.01,0.82,0.04,1.19,0.06c0.74,0.04,1.35,0.09,1.78,0.13c0.19,0.02,0.35,0.03,0.46,0.04c0.07-0.41,0.15-0.82,0.23-1.22
		c0.01-0.03,0.02-0.06,0.03-0.08c0,0,0,0,0,0c-0.1,0.01-0.31,0.03-0.61,0.06c-0.43,0.04-1.05,0.09-1.8,0.13
		c-0.37,0.02-0.77,0.04-1.2,0.06c-0.43,0.02-0.87,0.04-1.34,0.05c-0.46,0.01-0.94,0.03-1.43,0.03c-0.49,0-0.98,0.01-1.48,0.01
		c-0.5,0-0.99-0.01-1.48-0.01c-0.49,0-0.97-0.02-1.43-0.03c-0.46-0.01-0.91-0.03-1.34-0.05c-0.43-0.01-0.83-0.04-1.2-0.06
		c-0.74-0.04-1.36-0.09-1.8-0.13c-0.42-0.04-0.67-0.06-0.68-0.07l0.01,1.34c0.06-0.01,0.29-0.03,0.66-0.06
		C35.07,60.69,35.69,60.64,36.43,60.6z"/>
	<linearGradient id="SVGID_26_" gradientUnits="userSpaceOnUse" x1="26.7331" y1="-3.6432" x2="115.4419" y2="86.5847">
		<stop  offset="4.528621e-07" style="stop-color:#0D1F4D"/>
		<stop  offset="0.7251" style="stop-color:#1C4083"/>
		<stop  offset="1" style="stop-color:#184894"/>
	</linearGradient>
	<path class="st25" d="M84.09,62.84l-0.72-18.19l-0.63-1.25l0.38,20.25C83.41,63.34,83.74,63.07,84.09,62.84z"/>
	<linearGradient id="SVGID_27_" gradientUnits="userSpaceOnUse" x1="15.4494" y1="7.4505" x2="104.1583" y2="97.6784">
		<stop  offset="4.528621e-07" style="stop-color:#0D1F4D"/>
		<stop  offset="0.7251" style="stop-color:#1C4083"/>
		<stop  offset="1" style="stop-color:#184894"/>
	</linearGradient>
	<path class="st26" d="M71.98,54.77l-0.6-1.89l-0.36,8.47c-0.72-0.5-2.49-1.5-5.16-1.5c-1.58,0-3.23,0.36-4.91,1.06L58.6,62.8
		c0.15-0.04,4.08-1.86,5.9-1.86c2.39,0,5.64,0.7,7.52,4.02l0.07,0.13l10.1,0.22c0.07-0.26-1.46-0.33-1.32-0.58
		c-4.29-0.19-7.64-1.26-7.64-1.26C71.3,60.48,71.98,54.77,71.98,54.77z"/>
	<linearGradient id="SVGID_28_" gradientUnits="userSpaceOnUse" x1="33.3897" y1="-10.1877" x2="122.0986" y2="80.0401">
		<stop  offset="4.528621e-07" style="stop-color:#0D1F4D"/>
		<stop  offset="0.7251" style="stop-color:#1C4083"/>
		<stop  offset="1" style="stop-color:#184894"/>
	</linearGradient>
	<path class="st27" d="M92.99,55.34c-0.37,0.13-0.68,0.27-0.68,0.34l0.7,0.04c1.04,0.05,1.92-0.76,1.92-1.79v-7.43l-1.42-0.95
		l-3.1-0.36c0.1,0.16,0.18,0.34,0.23,0.54l2.03,2.28l0.52,1.51l0.73,4.24C94.04,54.42,93.65,55.1,92.99,55.34z"/>
	<linearGradient id="SVGID_29_" gradientUnits="userSpaceOnUse" x1="28.8651" y1="-5.7393" x2="117.574" y2="84.4885">
		<stop  offset="4.528621e-07" style="stop-color:#0D1F4D"/>
		<stop  offset="0.7251" style="stop-color:#1C4083"/>
		<stop  offset="1" style="stop-color:#184894"/>
	</linearGradient>
	<path class="st28" d="M95.49,44.45L77.1,41.09c-0.62-0.11-1.19,0.35-1.19,0.97l-1.71,3.66c-0.39,0.16-0.54,0.6-0.46,0.98
		l-0.62,1.32v3.19c-0.06,0.47-0.09,0.97,0,1.38v1.01h2.13l-0.95,0.9h-0.25l-0.12-0.81l-0.39,0.04c-0.41,0.04-0.72,0.37-0.72,0.77
		v1.81c0,0.34,0.28,0.61,0.62,0.61h0.44l0.53-0.62c0.25-0.2,0.46-0.46,0.64-0.74l1.54-1.79c0.23-0.27,0.04-0.67-0.31-0.67h-0.31
		l-0.19-0.17h0.71c1.55,0,1.78-0.83,1.79-0.86l0.01-0.03v-6.65l-0.51-0.03c-0.02,0.17-0.46,4.1-0.37,5.4
		c0.07,1.1-0.99,1.67-1.03,1.69l-0.71,0.37l-0.01-0.01c-0.17-0.15-0.27-0.37-0.27-0.6v-6.43l0.16-0.28
		c0.17-0.31,0.46-0.54,0.79-0.66l0.39-0.14c0.28-0.1,0.58-0.15,0.88-0.13l0.19,0.01c0.07,0,0.14,0.01,0.21,0.03
		c0.19,0.12,0.43,0.24,0.69,0.32c0.08,0.07,0.15,0.14,0.22,0.22l0.06,0.08l-0.23,6.56h0.64c0,0,0,0.01,0.01,0.01
		c0.34,0.58,1.21,0.45,1.52-0.01h0.52l0.24-8.27l-1.77-0.75l15.58,1.75C95.48,44.51,95.49,44.48,95.49,44.45z"/>
	<linearGradient id="SVGID_30_" gradientUnits="userSpaceOnUse" x1="19.0139" y1="3.946" x2="107.7228" y2="94.1739">
		<stop  offset="4.528621e-07" style="stop-color:#0D1F4D"/>
		<stop  offset="0.7251" style="stop-color:#1C4083"/>
		<stop  offset="1" style="stop-color:#184894"/>
	</linearGradient>
	<path class="st29" d="M47.25,51.53l22.31-0.94c0.54-0.03,1.06-0.42,1.31-0.97c0,0,0.23-0.49,0.57-1.21l0.04,0l0.78-1.65l-0.05,0.01
		c0.07-0.15,0.14-0.3,0.21-0.46h0.01l0.78-1.65l-0.03,0c0.6-1.28,1.1-2.38,1.21-2.66c0.3-0.75-0.59-0.93-0.59-0.93L50.48,43.4
		c-0.16,0.03-0.32,0.05-0.49,0.08c0,0,0,0,0,0c-0.01,0.01-0.02,0.02-0.04,0.04l23.26-0.83l-17.18,1.84l16.21,0.23l-18.22,1.6
		l17.22,0.51l-20.44,2.09l19.06,0.52C69.87,49.47,46.94,51.37,47.25,51.53z"/>
	<linearGradient id="SVGID_31_" gradientUnits="userSpaceOnUse" x1="28.3945" y1="-5.2766" x2="117.1033" y2="84.9513">
		<stop  offset="4.528621e-07" style="stop-color:#0D1F4D"/>
		<stop  offset="0.7251" style="stop-color:#1C4083"/>
		<stop  offset="1" style="stop-color:#184894"/>
	</linearGradient>
	<path class="st30" d="M74.57,39.39l-14.15,1.97l14.5-1.07c0.43-0.05,0.87-0.05,1.31,0.01l12.56,1.77l-12.22-2.65
		C75.91,39.28,75.23,39.27,74.57,39.39z"/>
	<linearGradient id="SVGID_32_" gradientUnits="userSpaceOnUse" x1="20.048" y1="2.9294" x2="108.7568" y2="93.1573">
		<stop  offset="4.528621e-07" style="stop-color:#0D1F4D"/>
		<stop  offset="0.7251" style="stop-color:#1C4083"/>
		<stop  offset="1" style="stop-color:#184894"/>
	</linearGradient>
	<path class="st31" d="M101.14,67.98c-5.04,2.73-5.01,8.31-5.01,8.31H75.03l18.87-1.96c0.72-2.9,3.13-4.59,4.97-5.49h0v0
		c0.03-0.02,0.06-0.03,0.09-0.04c0.09-0.04,0.19-0.09,0.28-0.13c0.06-0.03,0.12-0.05,0.18-0.08c0.01-0.01,0.02-0.01,0.03-0.02
		c0.02-0.01,0.05-0.02,0.07-0.03c0.08-0.03,0.16-0.07,0.24-0.1c0.02-0.01,0.04-0.02,0.05-0.02c0.09-0.04,0.18-0.07,0.26-0.1
		c0.2-0.08,0.37-0.14,0.52-0.18c0.03-0.01,0.05-0.02,0.08-0.03c0.02-0.01,0.04-0.01,0.05-0.02c0.04-0.01,0.07-0.02,0.1-0.03
		c0.02-0.01,0.04-0.01,0.06-0.02c0.05-0.02,0.1-0.03,0.14-0.04c0.02-0.01,0.04-0.01,0.05-0.02
		C101.12,67.99,101.14,67.98,101.14,67.98z"/>
	<linearGradient id="SVGID_33_" gradientUnits="userSpaceOnUse" x1="18.8298" y1="4.1271" x2="107.5386" y2="94.3549">
		<stop  offset="4.528621e-07" style="stop-color:#0D1F4D"/>
		<stop  offset="0.7251" style="stop-color:#1C4083"/>
		<stop  offset="1" style="stop-color:#184894"/>
	</linearGradient>
	<path class="st32" d="M93.62,70.81l-19.99-1.96l0,0c0.5,1.35,1.81,2.23,3.26,2.21L93.62,70.81z"/>
	<g>
		<linearGradient id="SVGID_34_" gradientUnits="userSpaceOnUse" x1="25.7538" y1="-2.6803" x2="114.4626" y2="87.5475">
			<stop  offset="4.528621e-07" style="stop-color:#0D1F4D"/>
			<stop  offset="0.7251" style="stop-color:#1C4083"/>
			<stop  offset="1" style="stop-color:#184894"/>
		</linearGradient>
		<path class="st33" d="M128.63,55.71c0,3.71-0.44,7.35-1.3,10.89c-0.58,2.37-1.35,4.7-2.31,6.97c-0.06,0.14-0.12,0.28-0.18,0.42
			c-0.87,2.01-1.88,3.94-3.02,5.79c-0.95,1.55-2,3.04-3.14,4.47c-1.08,1.36-2.25,2.67-3.49,3.91c-4.21,4.21-9.12,7.52-14.58,9.83
			c-5.66,2.39-11.67,3.61-17.86,3.61c-9.78,0-19.12-3.04-27-8.78c-0.57-0.41-0.69-1.21-0.28-1.77c0.41-0.57,1.21-0.69,1.77-0.28
			c7.44,5.43,16.26,8.3,25.51,8.3c12.72,0,24.18-5.51,32.12-14.27c2.57-2.84,4.77-6.01,6.52-9.45c0.22-0.43,0.43-0.86,0.64-1.3
			c1.13-2.42,2.05-4.96,2.72-7.6c0.88-3.43,1.34-7.02,1.34-10.72c0-7.38-1.85-14.34-5.12-20.43c-0.74-1.38-1.56-2.72-2.44-4.01
			c-7.82-11.41-20.94-18.91-35.78-18.91c-20.08,0-37.4,13.61-42.12,33.1c-0.17,0.68-0.85,1.1-1.53,0.94
			c-0.68-0.17-1.1-0.85-0.94-1.53c2.38-9.82,8.07-18.72,16.02-25.06c3.97-3.17,8.41-5.63,13.18-7.33c4.93-1.76,10.11-2.65,15.4-2.65
			c6.19,0,12.2,1.21,17.86,3.61c5.46,2.31,10.37,5.62,14.58,9.83c2.82,2.82,5.23,5.94,7.21,9.34c0.68,1.16,1.31,2.36,1.88,3.59
			c0.26,0.55,0.5,1.1,0.74,1.66C127.41,43.51,128.63,49.52,128.63,55.71z"/>
	</g>
</g>
</svg>
