<?xml version="1.0" encoding="utf-8"?>
<!-- Generator: Adobe Illustrator 23.0.2, SVG Export Plug-In . SVG Version: 6.00 Build 0)  -->
<svg version="1.1" id="Layer_1" xmlns="http://www.w3.org/2000/svg" xmlns:xlink="http://www.w3.org/1999/xlink" x="0px" y="0px"
	 viewBox="0 0 1070.7 817.36" style="enable-background:new 0 0 1070.7 817.36;" xml:space="preserve">
<style type="text/css">
	.st0{fill:#00448D;}
</style>
<g>
	<path d="M1053.7,776.45c0.89-2.79,1.86-5.84,2.97-9.32c2.06,0,4.64,0,7.66,0c0.15,2.37,0.29,4.79,0.45,7.39
		c1.83,0.45,3.59,0.88,5.36,1.31c0,0.39,0,0.79,0,1.18c-1.66,0.31-3.33,0.61-4.68,0.86c0,7.13,0,14.18,0,21.23
		c0.72,0.41,1.44,0.82,2.16,1.23c0.89-1.67,1.78-3.33,3.05-5.72c0.32,5.75-2.51,8.44-7.82,8.74c-4.91,0.27-7.01-1.39-7.16-6.07
		c-0.15-4.82,0.17-9.66-0.14-14.47C1055.41,780.55,1054.28,778.34,1053.7,776.45z"/>
	<g>
		<path class="st0" d="M373.92,479.81c4.39,1.65,8.75,3.39,13.18,4.93c31.38,10.95,63.29,13.8,95.8,5.81
			c24.81-6.09,45.1-20.13,63.62-37.04c27.09-24.72,45.39-55.18,57.09-89.66c11.43-33.68,17.3-68.43,16.54-104.01
			c-0.89-41.57-10.86-80.99-30.54-117.79c-2.51-4.7-5.02-9.4-7.59-14.06c-1.96-3.55-4.13-3.56-7.09-0.76
			c-11.51,10.9-18.64,24.54-25.15,38.7c-14.09,30.68-19.62,63.22-20.33,96.58c-0.81,37.87-7.58,74.08-25.78,107.68
			c-14,25.84-32.17,47.71-58.53,61.87c-20.34,10.92-41.88,13.78-64.37,9.32c-35.03-6.95-61.96-26.65-83.6-54.24
			c-16.88-21.53-28.16-45.92-34.89-72.34c-2.33-9.16-3.55-18.61-5.08-27.96c-1.75-10.76-4.66-21.44-3.24-32.49
			c1.11-8.64,2.34-17.27,3.79-25.85c3.46-20.58,8.88-40.64,17.75-59.58c13.27-28.34,31.56-52.77,58.94-68.78
			c31.96-18.69,65.35-19.75,99.14-4.74c3.83,1.7,5.65,1.5,8.05-2.13c11.93-18.07,26.46-33.8,43.63-47.06
			c1.21-0.93,1.91-2.51,2.85-3.79c-1.28-0.83-2.47-1.93-3.87-2.45C448.1,26.61,412.2,28.29,376.5,41.75c-0.55,0.21-1.13,0.3-1.84,0
			c38.55-24.88,81.12-37.42,126.55-40.96c58.59-4.58,112.12,11.03,162.09,40.55c-0.12,0.41-0.23,0.82-0.35,1.23
			c-5.31-1.83-10.6-3.73-15.94-5.47c-26.7-8.72-53.97-11.92-81.74-6.94c-28.64,5.13-53,19.15-74.61,38.19
			c-24.41,21.5-41.02,48.35-52.86,78.34c-9.78,24.76-15.3,50.56-18.41,76.96c-2.73,23.12-2.98,46.14,0.32,69.22
			c5.13,35.86,16.45,69.5,35.2,100.56c2.66,4.41,3.92,4.49,7.6,0.98c11.86-11.29,18.99-25.61,25.5-40.26
			c12.6-28.37,17.98-58.33,19.88-89.14c1.11-18.08,1.63-36.4,5.08-54.09c7.51-38.57,22.34-74.05,51.61-101.69
			c25.74-24.29,56.37-35.2,91.65-29.32c26.55,4.42,48.95,17.77,68.23,36.28c25.81,24.78,41.78,55.29,51.33,89.46
			c5.33,19.07,8.12,38.54,7.44,58.26c-1.62,47.2-14.93,90.49-45.3,127.52c-19.35,23.6-43.45,39.83-74.11,44.28
			c-21.05,3.06-41.57-0.03-60.8-9.47c-3.78-1.86-5.48-1.17-7.63,2.14c-12.08,18.56-26.44,35.09-44.04,48.69
			c-1.19,0.92-1.97,2.35-3.38,4.07c39.3,15.98,77.54,14.14,116.09-0.21c-3.14,1.99-6.21,4.1-9.42,5.96
			c-29.43,17.06-61.09,27.66-94.68,32.78c-18.39,2.81-36.75,6.71-55.42,4.4c-16.46-2.03-32.9-4.65-49.1-8.16
			c-28.93-6.27-55.23-19.11-80.5-34.19c-0.5-0.3-0.93-0.74-1.39-1.12C373.66,480.33,373.79,480.07,373.92,479.81z"/>
		<g>
			<path d="M719.78,704.25c3.46,0,6.73,0,10.43,0c0-32.62,0-64.79,0-96.92c-3.64-0.65-7.1-1.19-10.49-2.01
				c-0.25-0.06-0.03-2.09-0.03-3.46c1.53-0.12,2.82-0.32,4.11-0.32c18.66-0.02,37.33-0.42,55.97,0.2c6.61,0.22,13.55,2.01,19.6,4.74
				c8.8,3.98,12.82,11.9,12.51,21.58c-0.31,9.58-5.79,15.77-14.24,19.35c-4.54,1.93-9.4,3.09-14.94,4.86
				c5.12,1.18,9.6,1.95,13.91,3.27c10.95,3.35,18.47,10.05,19.32,22.12c0.83,11.74-3.91,21-14.47,26.32
				c-5.25,2.65-11.26,5.01-17.01,5.22c-20.63,0.74-41.3,0.52-61.95,0.65C718.11,709.89,719.6,707.02,719.78,704.25z M756.65,703.93
				c6.43,0,12.4,0.26,18.33-0.07c6.87-0.38,10.81-3.62,11.29-10.35c0.62-8.58,0.53-17.26,0.04-25.86c-0.28-4.93-2.5-9.96-7.93-10.99
				c-7.03-1.34-14.28-1.51-21.73-2.22C756.65,671.62,756.65,687.38,756.65,703.93z M756.46,650.35c6.58-0.38,12.53-0.45,18.4-1.16
				c4.83-0.59,8.12-3.96,8.4-8.63c0.52-8.58,0.44-17.21,0.08-25.8c-0.18-4.28-3.25-7-7.54-7.38c-5.45-0.49-10.95-0.66-16.43-0.58
				c-0.99,0.01-2.78,1.87-2.79,2.89C756.4,622.81,756.46,635.94,756.46,650.35z"/>
			<path d="M2.43,601.81c28.45,0,56.55,0,85.48,0c0,8.55,0.06,16.83-0.08,25.11c-0.02,1.01-1.23,2.89-1.74,2.84
				c-1.41-0.14-3.32-0.71-4-1.77c-1.61-2.49-2.59-5.39-3.89-8.09c-4.34-8.99-11.34-13.65-21.51-13.29c-4.66,0.16-9.33,0.12-14-0.01
				c-2.66-0.07-3.94,0.67-3.92,3.64c0.11,12.33,0.1,24.67,0,37c-0.02,2.84,1.07,3.71,3.84,3.72c7.21,0.02,12.61-3.18,15.32-9.85
				c1.24-3.05,1.95-6.32,2.96-9.69c1.45,0,2.91,0,4.71,0c0,15.2,0,30.28,0,45.88c-1.49,0.07-3.03,0.15-4.76,0.23
				c-0.63-3.1-1.04-5.88-1.78-8.58c-2.32-8.43-8.65-13.13-16.94-12.39c-1.17,0.1-3.15,1.65-3.16,2.55
				c-0.2,14.79-0.14,29.58-0.14,44.26c8.86,0,17.2,0.7,25.37-0.2c7.76-0.85,13.17-6.22,16.6-13.11c2.06-4.14,3.64-8.56,5.01-12.99
				c0.99-3.2,2.46-4.55,5.53-3.27c0,11.83,0,23.56,0,35.67c-30.66,0-60.54,0-90.93,0c-0.07-1.58-0.15-3.12-0.25-5.34
				c4.21,0,7.95,0,12.3,0c0-2.43,0-4.21,0-5.99c0-28.5-0.11-57,0.11-85.5c0.04-4.76-1.19-6.51-6.07-6.12
				C1.83,606.91,1.8,606.56,2.43,601.81z"/>
			<path d="M371.32,701.33c0,11.77-0.01,23.02,0.01,34.27c0,1.62,0.15,3.25,0.24,5.18c3.75,0.17,7.17,0.32,10.86,0.48
				c0,1.75,0,3.17,0,4.93c-13.96,0-27.7,0-41.81,0c-0.08-1.58-0.16-2.99-0.26-4.93c2.93-0.14,5.52-0.27,8.54-0.42
				c0-30.15,0-60.18,0-91.08c-2.37,0-4.83,0.26-7.18-0.12c-1.05-0.17-1.9-1.61-2.84-2.47c0.91-0.87,1.77-2.42,2.73-2.49
				c9.61-0.72,19.24-1.2,29.44-1.78c0,3.26,0,6.49,0,9.77c0.88-0.07,1.34,0.03,1.45-0.13c10.1-15.27,33.6-12.5,42.89,4.23
				c7.2,12.96,7.57,26.57,0.57,39.71C406.31,714.61,387.17,716.77,371.32,701.33z M396.35,677.32c0-6.83,0.14-13.65-0.04-20.48
				c-0.2-7.78-4.37-10.72-11.9-8.54c-6.61,1.92-11.03,6.86-11.61,13.11c-0.97,10.49-0.8,21.17-0.06,31.7
				c0.37,5.34,4,9.79,9.21,12.29c8.52,4.1,14.2,0.74,14.38-8.61C396.46,690.31,396.36,683.82,396.35,677.32z"/>
			<path d="M949.81,704.8c0.17-1.78,0.4-3.07,0.4-4.37c0.03-13.66,0.06-27.33-0.01-40.99c-0.02-3.51-0.04-7.34-4.04-8.92
				c-3.98-1.56-7.69,0.27-9.7,3.33c-3.04,4.62-6.72,9.75-7.19,14.93c-1.07,11.68-0.33,23.53-0.33,35.68
				c1.38,0.1,2.95-0.12,4.22,0.39c1.2,0.48,2.1,1.73,3.14,2.64c-1,0.79-1.97,2.2-3,2.25c-4.82,0.25-9.66,0.12-14.49,0.12
				c-6.17,0-12.33,0.12-18.49-0.11c-1.21-0.05-2.36-1.47-3.54-2.25c1.2-0.91,2.29-2.26,3.64-2.63c1.67-0.46,3.57-0.11,5.7-0.11
				c0-18.51,0-36.57,0-55.28c-2.33,0-4.52,0.34-6.51-0.12c-1.33-0.31-2.39-1.78-3.57-2.73c1.09-0.88,2.17-2.49,3.27-2.51
				c9.46-0.2,18.93-0.12,28.92-0.12c0,3.83,0,8.23,0,13.84c1.35-1.41,1.95-1.85,2.31-2.44c6.07-9.98,15.26-13.33,26.44-12.47
				c9.47,0.73,14.09,5.23,14.39,15.11c0.41,13.32,0.3,26.65,0.41,39.98c0.02,1.97,0,3.94,0,6.46c2.52,0.12,4.66-0.02,6.67,0.42
				c0.94,0.2,2.26,1.53,2.26,2.35c0,0.86-1.37,2.44-2.16,2.45c-11.33,0.16-22.66,0.16-33.99,0.01c-0.78-0.01-2.13-1.61-2.13-2.47
				c0.01-0.82,1.31-2.1,2.26-2.34C946.21,704.51,947.92,704.8,949.81,704.8z"/>
			<path d="M580.43,649.3c0-1.87,0-3.3,0-5.4c10.66,0,21.05,0,31.97,0c0,4.02,0,8.25,0,13.67c1.33-1.42,1.9-1.89,2.31-2.48
				c7.52-10.56,17.51-14.41,30.06-11.57c5.21,1.17,8.76,4.22,9.74,9.49c0.76,4.06,1.13,8.24,1.19,12.38
				c0.16,11.16,0.05,22.32,0.05,33.48c0,1.79,0,3.57,0,5.24c3.33,0.57,6.06,0.91,8.67,1.66c0.33,0.09,0.05,2.34,0.05,3.84
				c-12.77,0-25.2,0-38.1,0c-0.09-1.45-0.18-2.83-0.28-4.54c2.69-0.19,4.95-0.35,7.23-0.51c0.28-0.53,0.68-0.95,0.68-1.38
				c0.07-15.16,0.26-30.32-0.04-45.47c-0.05-2.4-1.83-6.07-3.72-6.8c-2.23-0.87-5.97,0.04-8.16,1.52
				c-5.53,3.73-8.58,9.67-8.89,16.11c-0.56,11.76-0.16,23.57-0.16,35.73c0.67,0.13,1.6,0.3,2.52,0.49c1.84,0.39,4.87-1.18,4.84,2.48
				c-0.03,3.94-3.26,2.54-5.24,2.57c-8.99,0.14-17.99,0.06-26.99,0.06c-2.14,0-4.29,0-8.37,0c1.72-2.44,2.41-4.5,3.65-4.91
				c1.91-0.64,4.2-0.17,7.04-0.17c0-2.8,0-5.07,0-7.35c0-13.83-0.26-27.66,0.13-41.48c0.15-5.3-1.41-7.34-6.63-6.51
				C583.04,649.61,582.03,649.39,580.43,649.3z"/>
			<path d="M100.41,644.6c10.19-0.56,20.43-1.12,31.19-1.72c0.1,1.93,0.27,3.7,0.27,5.47c0.02,15.33,0,30.67,0.02,46
				c0,3.53-0.19,7.46,3.78,9.02c4.05,1.6,7.43-0.48,10.27-3.37c4.66-4.74,7.1-10.65,7.34-17.09c0.4-10.8,0.11-21.63,0.11-33.07
				c-2.76-0.13-5.39,0.02-7.89-0.48c-1.21-0.24-2.19-1.68-3.27-2.57c0.99-0.8,1.93-2.22,2.97-2.29c9.93-0.65,19.87-1.08,30.34-1.6
				c0,20.38,0,40.63,0,59.76c2.82,4.23,10.36-2.01,10.07,6.67c-10.56,0.51-20.81,1-31.7,1.52c0-4.82,0-9.37,0-13.91
				c-0.33-0.09-0.66-0.19-0.98-0.28c-0.92,1.26-1.84,2.52-2.75,3.78c-6.36,8.85-15.09,12.3-25.71,10.83
				c-9.8-1.35-14.03-6.19-14.12-16.1c-0.13-13.33-0.25-26.67,0.08-40c0.12-4.73-1.38-6.31-5.9-5.73
				C101.23,649.88,98.71,649.26,100.41,644.6z"/>
			<path d="M292.36,711.59c-9.06-0.22-20.93-4.7-27.8-17.39c-6.5-12-6.06-24.46,1.25-36.08c10.32-16.42,37.38-20.71,54.43-8.97
				c15.45,10.63,19,33.43,7.59,48.72C321.17,706.78,310.41,711.6,292.36,711.59z M310.09,677.1c-0.43-7.27-0.42-14.11-1.34-20.83
				c-0.93-6.8-4.59-9.43-11.28-9.42c-6.48,0.01-10.54,2.46-10.93,9.09c-0.83,14.04-1,28.16-0.48,42.21
				c0.25,6.68,4.58,9.34,11.3,9.31c6.78-0.03,10.32-2.63,11.21-9.46C309.49,690.94,309.63,683.78,310.09,677.1z"/>
			<path d="M547.92,671.54c0-6.16,0.09-11.79-0.03-17.43c-0.08-3.9-2.21-6.22-6.14-6.52c-2.47-0.19-5.01-0.33-7.45,0
				c-4.54,0.6-5.19,2.04-3.32,6.35c3.05,7.01,1.17,12.98-4.71,14.93c-4.95,1.64-9.9,0.48-12.25-2.87
				c-2.67-3.82-2.72-10.69,0.87-14.49c2.63-2.78,6.15-5.32,9.75-6.47c10.33-3.3,20.98-3.38,31.52-0.66
				c8.74,2.26,11.51,5.98,11.54,14.94c0.03,11.32-0.03,22.64,0.02,33.95c0.03,6.63,1.07,7.46,7.44,6.6c0.79-0.11,2.39,0.47,2.4,0.78
				c0.05,1.23-0.07,2.65-0.68,3.68c-5.32,9.06-19.2,9.75-25.56,1.31c-0.98-1.3-1.78-2.73-3.02-4.65
				c-5.77,6.64-12.79,10.23-21.35,10.58c-9.43,0.39-15.4-2.83-17.78-9.73c-2.84-8.28-0.06-16.94,7.18-22.08
				c7.61-5.4,16.39-7.06,25.44-7.82C543.59,671.79,545.4,671.7,547.92,671.54z M547.87,676.91c-14.3-1.1-19.19,3.08-18.54,15.17
				c0.34,6.4,2.8,9.56,7.64,9.81c5.87,0.31,10.33-3.25,10.82-9.33C548.2,687.47,547.87,682.32,547.87,676.91z"/>
			<path d="M863.5,701.11c-6.1,6.88-13.52,10.43-22.48,10.48c-6.89,0.04-13.2-1.52-16.1-8.53c-3.03-7.33-2.15-14.45,3.45-20.43
				c5.49-5.88,12.77-8.27,20.43-9.59c4.57-0.79,9.23-1.11,14.11-1.68c0-6.2,0.46-12.5-0.27-18.66c-0.23-1.92-3.55-4.7-5.67-4.91
				c-3.72-0.37-7.61,0.95-11.43,1.56c0.33,1.82,0.42,3.73,1.05,5.45c1.53,4.19,1.86,8.31-1.38,11.69
				c-3.31,3.46-7.65,3.88-12.04,2.36c-6.1-2.11-8.06-11.58-3.07-17.37c2.47-2.86,6.16-5.28,9.77-6.44
				c10.68-3.41,21.65-3.44,32.48-0.38c7.39,2.09,10.02,5.06,10.32,12.72c0.46,11.97,0.37,23.96,0.48,35.94
				c0.07,6.91,0.38,7.18,7.3,6.51c0.81-0.08,2.29,0.45,2.4,0.95c0.23,0.97-0.03,2.26-0.53,3.17c-5.13,9.36-19.19,10.23-25.89,1.61
				C865.44,704.3,864.65,702.88,863.5,701.11z M863.7,677.09c-14.56-1.88-20.49,3.34-19.13,15.93c0.64,5.89,2.91,8.58,7.49,8.87
				c5.45,0.35,9.6-2.28,10.48-7.73C863.43,688.65,863.34,682.98,863.7,677.09z"/>
			<path d="M993.08,606.97c-1.56-0.13-3.12,0.04-4.42-0.44c-1.11-0.42-2.67-1.56-2.7-2.43c-0.03-0.93,1.42-2.69,2.34-2.77
				c8.75-0.75,17.53-1.22,26.89-1.8c0,35.17,0,69.9,0,105.25c2.67,0,4.84-0.3,6.86,0.11c1.21,0.25,2.18,1.62,3.26,2.48
				c-1.12,0.83-2.23,2.37-3.37,2.39c-10.83,0.18-21.66,0.2-32.49-0.01c-1.24-0.02-2.46-1.69-3.69-2.59c1.15-0.79,2.22-1.8,3.49-2.31
				c1.02-0.41,2.28-0.22,3.82-0.32C993.08,672.05,993.08,639.68,993.08,606.97z"/>
			<path d="M497.93,674.39c-13.38,0-26.82,0-41.53,0c0.57,9.11,0.69,17.7,1.81,26.15c0.63,4.72,4.98,6.3,9.44,6.69
				c10.69,0.91,20.31-4.54,25.38-14.36c0.46-0.89,0.65-1.98,1.29-2.68c0.74-0.8,1.84-1.27,2.79-1.88c0.32,1.21,1.23,2.65,0.87,3.61
				c-4.2,11.01-11.98,18-23.87,19.35c-11.94,1.35-23.37-0.18-32.66-8.83c-9.71-9.05-12.64-24.47-7.41-37.96
				c5.1-13.17,17.44-21.5,32.35-21.85C486.33,642.16,499.36,655.06,497.93,674.39z M477.39,669.3c0.11-2.11,0.23-3.43,0.24-4.74
				c0.01-2.82,0.15-5.67-0.1-8.47c-0.6-6.76-4.08-9.58-11.02-9.2c-6.54,0.35-9.51,3.46-9.63,10.16c-0.06,2.99-0.25,6.01,0.12,8.96
				c0.15,1.18,1.6,3.09,2.53,3.14C465.29,669.45,471.09,669.3,477.39,669.3z"/>
			<path d="M199.63,650.76c-2.23-2.85-9.3,2.28-8.06-5.89c9.74-0.67,19.46-1.34,29.94-2.06c0,4.88,0,9.53,0,15.02
				c3.37-4.17,5.67-7.83,8.75-10.66c4.93-4.54,10.9-5.63,17.11-2.67c5.21,2.48,7.42,6.99,7.27,12.61c-0.13,4.86-2.2,8.7-6.82,10.7
				c-4.03,1.75-7.95,1.25-11.12-1.81c-3.52-3.4-4.62-7.57-2.71-12.32c0.33-0.81,0.26-1.79,0.58-4.28c-2.59,2.26-4.71,3.3-5.51,4.97
				c-2.47,5.2-5.82,10.51-6.3,16c-0.97,11.17-0.29,22.49-0.29,34.41c2.94,0,5.74-0.23,8.47,0.12c0.97,0.13,1.76,1.68,2.64,2.58
				c-0.84,0.78-1.66,2.23-2.51,2.24c-12.31,0.15-24.63,0.15-36.94,0c-0.84-0.01-1.67-1.47-2.5-2.26c0.88-0.9,1.61-2.28,2.66-2.59
				c1.51-0.44,3.26-0.11,5.35-0.11C199.63,686.43,199.63,668.43,199.63,650.76z"/>
			<path d="M1041.02,649.77c-2.96,0-5.92-0.14-8.87,0.03c-3.68,0.21-4.3-1.52-3.21-4.9c10.68,0,21.41,0,33.79,0
				c-1.4,2.1-2.58,4.76-3.19,4.64c-9.91-2.01-15,5.45-21.3,10.5c-1.29,1.03-2.46,2.21-4.2,3.77c5.22,7.09,10.39,14.14,15.59,21.16
				c3.76,5.08,7.59,10.11,11.31,15.22c1.88,2.58,3.5,5.28,7.47,4.73c0.62-0.09,2.11,1.61,2.07,2.42c-0.04,0.86-1.42,2.36-2.23,2.37
				c-11.81,0.16-23.63,0.16-35.44,0.01c-0.79-0.01-2.15-1.55-2.17-2.4c-0.02-0.83,1.19-2.1,2.14-2.44c1.3-0.48,2.84-0.27,5.19-0.4
				c-7.59-10.49-14.75-20.37-22.15-30.58c8.81-7.84,17.32-15.41,25.82-22.98C1041.42,650.55,1041.22,650.16,1041.02,649.77z"/>
			<path d="M113.14,760.18c-1.77-0.57-3.22-1.03-5.45-1.75c1.3-0.66,1.83-1.16,2.36-1.16c8.81,0.04,17.64-0.17,26.43,0.34
				c7.04,0.41,10.54,3.62,11.07,8.68c0.57,5.48-2.66,9.25-9.7,11.33c-0.46,0.14-0.9,0.34-2.65,1.02
				c9.73,2.41,11.03,9.28,10.91,16.78c-0.07,4.33,2.63,4.7,7.4,4.33c-3.9,3.61-7.21,4.25-10.79,3.72c-4.32-0.65-7.51-2.97-8.37-7.42
				c-0.62-3.24-0.49-6.62-0.96-9.9c-0.76-5.29-2.92-6.75-8.85-6.09c0,6.38,0,12.8,0,19.28c1.76,0.54,3.36,1.03,4.97,1.52
				c-0.05,0.37-0.09,0.73-0.14,1.1c-6.93,0-13.87,0-20.8,0c6.26-1.8,4.55-6.72,4.56-10.84
				C113.16,780.83,113.14,770.53,113.14,760.18z M124.48,777.95c3.98-1.28,9.18-1.61,9.74-3.39c1.29-4.13,1.18-9.23-0.14-13.37
				c-0.49-1.53-5.97-1.47-9.6-2.22C124.48,765.54,124.48,770.81,124.48,777.95z"/>
			<path d="M693.49,801.3c2.51-0.86,4.06-1.4,6.11-2.11c0-1.66,0-3.45,0-5.25c0-11.28,0-22.56,0-33.92
				c-1.97-0.4-3.48-0.71-6.03-1.22c1.52-0.89,2.11-1.53,2.71-1.54c7.81-0.04,15.66-0.39,23.44,0.15
				c11.77,0.81,19.38,9.9,19.46,22.38c0.08,12.23-7.27,21.57-18.74,22.56c-8.09,0.7-16.28,0.19-24.43,0.17
				C695.51,802.5,695,802.03,693.49,801.3z M710.6,759.95c0,12.69-0.04,25.11,0.08,37.52c0.01,0.84,0.99,2.16,1.79,2.43
				c7.04,2.37,12.96-1.21,13.62-8.67c0.55-6.26,0.44-12.6,0.32-18.9C726.21,761.32,722.65,758.45,710.6,759.95z"/>
			<path d="M927.52,775.49c3.99-0.26,7.98-0.51,12.34-0.79c0.35,1.56,0.65,2.92,1.03,4.62c5.87-4.91,11.78-7.99,17.89,0.07
				c1.07-0.92,2.14-2.58,3.49-2.86c3.43-0.72,7.36-1.86,10.35-0.78c1.96,0.71,3.3,4.89,3.73,7.7c0.62,4.07-0.07,8.32,0.27,12.45
				c0.16,1.98,1.42,3.87,2.29,6.09c-4.16,0-9.36,0-13.71,0c0.63-2.27,1.68-4.58,1.83-6.95c0.29-4.47,0.18-8.99,0-13.47
				c-0.05-1.16-0.82-3.11-1.54-3.25c-1.19-0.24-3.21,0.31-3.83,1.23c-1.43,2.13-2.76,4.6-3.17,7.09c-0.54,3.24-0.4,6.66-0.07,9.95
				c0.18,1.79,1.35,3.49,2.2,5.51c-4.33,0-9.23,0-13.24,0c0.65-2.46,1.7-4.9,1.88-7.4c0.31-4.3,0.22-8.66-0.01-12.97
				c-0.07-1.27-0.96-3.24-1.89-3.51c-1.04-0.31-3.44,0.64-3.71,1.52c-1.33,4.32-2.56,8.77-2.99,13.25c-0.28,2.9,0.87,5.94,1.44,9.24
				c-3.75,0-8.7,0-12.73,0c0.74-2.61,1.79-5.02,2.04-7.52c0.35-3.46-0.04-6.99,0.12-10.47C931.7,780.73,931.97,777.37,927.52,775.49
				z"/>
			<path d="M670.18,802.72c-3.77-0.27-8.18-0.59-14.21-1.03c-4.14,2.79-9.86,2.56-14.02-1.8c-4.96-5.2-5.27-15.62-0.64-21.28
				c3.96-4.84,9.64-5.33,16.92-1.19c0-5.89,0-11.55,0-17.46c-1.46-0.35-2.95-0.71-4.45-1.07c0-0.48,0-0.96,0.01-1.43
				c4.38-0.33,8.75-0.66,13.91-1.05c0,4.81,0,9.07,0,13.33c0,8.66-0.12,17.32,0.09,25.98C667.85,797.67,669.08,799.6,670.18,802.72z
				 M648.24,788.7c0,2.65-0.29,5.34,0.11,7.93c0.24,1.55,1.3,3.76,2.49,4.15c1.35,0.44,3.62-0.4,4.84-1.45
				c4.28-3.65,4.26-17.14-0.02-20.74c-1.25-1.05-3.5-1.94-4.86-1.51c-1.17,0.37-2.19,2.63-2.45,4.19
				C647.94,783.68,648.24,786.21,648.24,788.7z"/>
			<path d="M903.27,800.46c2.13,5.72-3.76,12.75,4.73,16.9c-5.67,0-11.34,0-15.88,0c0.71-3.08,1.9-6.01,1.97-8.96
				c0.25-9.97,0.09-19.94,0.09-30.12c-1.41-0.49-2.69-0.93-4.25-1.47c4.96-2.96,12.31-2.66,14.61,0.36
				c6.58-3.86,12.01-3.42,16.06,1.3c4.47,5.2,4.79,14.45,0.7,20.04C917.33,803.91,912.08,804.64,903.27,800.46z M913.88,788.9
				c0-2.48,0.27-5.01-0.1-7.43c-0.24-1.59-1.08-3.9-2.24-4.33c-1.31-0.49-3.6,0.34-4.88,1.35c-4.52,3.56-4.5,17.56,0.05,21.06
				c1.27,0.97,3.61,1.68,4.9,1.15c1.16-0.48,1.94-2.76,2.17-4.36C914.14,793.9,913.88,791.38,913.88,788.9z"/>
			<path d="M1015.92,802.07c1.03-2.18,2.93-4.23,2.61-5.87c-1.26-6.62,4.13-14.62-4.85-20.79c5.15-0.29,9.43-0.54,13.94-0.79
				c0.35,1.55,0.64,2.78,0.95,4.16c0.56-0.25,0.97-0.45,1.39-0.63c2.97-1.22,5.85-3.08,8.93-3.49c4.27-0.57,6.89,1.84,6.98,6.45
				c0.09,4.66,0.01,9.33,0.44,13.96c0.21,2.28,1.41,4.46,2.25,6.95c-4.01,0-9.2,0-13.53,0c0.67-2.43,1.71-4.75,1.87-7.13
				c0.3-4.31,0.21-8.66-0.01-12.98c-0.06-1.33-0.95-3.63-1.63-3.7c-1.38-0.14-3.46,0.55-4.2,1.63c-1.35,1.97-2.39,4.4-2.72,6.76
				c-0.46,3.27-0.37,6.67-0.06,9.96c0.17,1.78,1.3,3.48,2.11,5.51C1025.77,802.07,1020.53,802.07,1015.92,802.07z"/>
			<path d="M269,802.24c-5.36,0-10.5,0-15.65,0c4.23-1.83,3.41-5.37,3.39-8.61c-0.03-4.99-0.01-9.97-0.01-15.22
				c-1.42-0.57-2.8-1.13-4.18-1.69c0.02-0.42,0.04-0.84,0.05-1.26c4.12-0.29,8.24-0.58,12.65-0.89c0.39,1.57,0.73,2.92,1.11,4.44
				c0.52-0.23,0.95-0.36,1.33-0.58c2.12-1.22,4.08-3.03,6.36-3.59c6.52-1.59,9.88,1.11,10.14,7.78c0.16,4.15-0.2,8.33,0.13,12.46
				c0.18,2.31,1.29,4.54,2.06,7.06c-4.12,0-9.22,0-13.25,0c0.67-2.91,1.68-5.8,1.93-8.76c0.33-3.79,0.25-7.66-0.06-11.46
				c-0.12-1.41-1.21-3.66-2.17-3.85c-1.21-0.23-3.26,0.94-4.03,2.1c-1.24,1.86-2.15,4.16-2.44,6.37c-0.46,3.6-0.56,7.31-0.29,10.93
				C266.19,798.92,267.72,800.24,269,802.24z"/>
			<path d="M633.93,802.16c-4.4,0-9.54,0-13.55,0c0.71-2.71,1.73-5.16,1.91-7.66c0.3-4.14,0.24-8.34-0.05-12.49
				c-0.1-1.43-1.36-2.77-2.09-4.15c-1.51,0.87-4.07,1.49-4.34,2.65c-1.21,5.08-1.99,10.3-2.42,15.51c-0.15,1.84,1.14,3.8,1.87,6.01
				c-4.29,0-9.45,0-13.58,0c0.8-2.45,2.11-4.81,2.26-7.24c0.34-5.47,0.11-10.97,0.11-16.59c-1.57-0.46-2.9-0.86-4.23-1.25
				c-0.02-0.51-0.04-1.02-0.06-1.54c4.19-0.27,8.39-0.53,12.9-0.82c0.39,1.6,0.71,2.94,0.9,3.7c3.27-1.3,6.32-3.15,9.57-3.65
				c5.25-0.8,7.88,1.57,8.22,6.87c0.3,4.65-0.13,9.35,0.23,13.99C631.74,797.64,633.01,799.69,633.93,802.16z"/>
			<path d="M527.36,802.23c-5.34,0-10.38,0-14.36,0c0.8-2.85,2.01-5.5,2.2-8.22c0.35-5.12,0.1-10.28,0.1-15.63
				c-1.52-0.58-2.91-1.11-4.3-1.64c0.02-0.46,0.03-0.92,0.05-1.38c4.26-0.23,8.53-0.47,12.98-0.71c0.32,1.56,0.57,2.81,0.85,4.18
				c0.53-0.16,1.01-0.24,1.42-0.43c2.77-1.28,5.44-3.33,8.32-3.72c5.35-0.72,7.73,1.65,7.97,7.04c0.2,4.48-0.17,8.99,0.17,13.45
				c0.17,2.26,1.36,4.45,2.16,6.9c-3.91,0-9,0-13.25,0c0.64-2.69,1.65-5.47,1.88-8.32c0.32-3.96,0.21-7.98-0.04-11.95
				c-0.08-1.3-1.09-3.52-1.82-3.59c-1.36-0.12-3.29,0.68-4.15,1.76c-1.28,1.62-2.34,3.75-2.58,5.77c-0.47,3.94-0.54,7.97-0.29,11.92
				C524.77,799.09,526.25,800.43,527.36,802.23z"/>
			<path d="M384.36,775.35c4.21-0.25,8.42-0.49,13.43-0.78c0,6.85,0,13.27,0,19.69c0,5.17,0.01,5.17,5.28,8.03
				c-5.37,0.25-9.52,0.45-13.91,0.66c-0.33-1.51-0.6-2.74-0.9-4.11c-0.49,0.19-0.93,0.34-1.35,0.53c-2.92,1.33-5.75,3.45-8.79,3.82
				c-4.85,0.58-7.28-2.2-7.4-7.14c-0.09-3.82,0.08-7.65-0.05-11.47c-0.11-3.32,1.86-7.77-5.67-7.54c0.52-0.54,1.05-1.08,1.57-1.63
				c4.14-0.28,8.28-0.57,13.22-0.91c0,6.97-0.16,13.39,0.1,19.8c0.07,1.85,1.35,3.66,2.08,5.48c1.75-1.32,4.67-2.39,5.03-4.02
				c1.23-5.59,1.55-11.37,2.23-17.16c-2.24-0.81-3.77-1.36-5.3-1.92C384.08,776.24,384.22,775.79,384.36,775.35z"/>
			<path d="M218.34,788.54c0.14-8.7,6.4-14.23,15.9-14.07c8.91,0.15,15.15,6.2,15.04,14.58c-0.11,8.51-6.71,14.49-15.85,14.35
				C224.06,803.26,218.19,797.49,218.34,788.54z M238.99,788.97c-0.18-2.69,0.08-5.64-0.72-8.26c-0.5-1.64-2.63-3.93-3.96-3.89
				c-1.74,0.06-4.72,2-4.87,3.38c-0.6,5.72-0.66,11.57-0.16,17.3c0.13,1.46,3.08,3.79,4.62,3.7c1.58-0.09,3.69-2.42,4.33-4.21
				C239.1,794.58,238.79,791.75,238.99,788.97z"/>
			<path d="M477.38,788.96c-0.02-8.68,6.27-14.53,15.58-14.49c9.03,0.04,15.32,5.8,15.45,14.16c0.13,8.56-6.2,14.64-15.41,14.77
				C483.76,803.53,477.4,797.64,477.38,788.96z M497.95,788.81c-0.12,0-0.23,0-0.35-0.01c0-2.65,0.48-5.43-0.17-7.91
				c-0.44-1.66-2.47-4.04-3.81-4.05c-1.72-0.02-4.84,1.87-4.97,3.17c-0.6,5.88-0.66,11.87-0.17,17.76c0.11,1.36,3.16,3.36,4.92,3.41
				c1.33,0.04,3.47-2.31,3.96-3.98C498.12,794.57,497.81,791.62,497.95,788.81z"/>
			<path d="M13.78,774.79c2,0.43,3.68,0.79,5.37,1.15c0.03,0.36,0.06,0.72,0.09,1.08c-1.63,0.3-3.27,0.6-5.68,1.05
				c0,6.59-0.2,13.35,0.18,20.07c0.07,1.23,2.46,2.33,4.1,3.77c-5.57,0-11.21,0-16.87,0C6.13,797.49,5.82,779,0,776.32
				c1.6-0.67,2.83-1.19,3.43-1.44c1.15-4.09,1.75-7.91,3.29-11.31c2.49-5.48,8.06-8.4,13.55-6.8c2.22,0.65,4.1,3.28,5.48,5.43
				c0.44,0.69-0.86,3.32-1.99,3.98c-1.15,0.67-3.49,0.55-4.56-0.24c-0.99-0.73-1.12-2.78-1.35-4.3c-0.1-0.68,0.48-1.47,0.79-2.29
				C13.23,759.1,12.75,760.65,13.78,774.79z"/>
			<path d="M871.68,774.47c9.21-0.01,15.62,6.02,15.52,14.6c-0.09,8.34-6.4,14.24-15.32,14.33c-9.26,0.09-15.71-5.8-15.74-14.36
				C856.1,780.38,862.39,774.48,871.68,774.47z M876.83,788.99c-0.11,0-0.22-0.01-0.32-0.01c0-2.65,0.54-5.47-0.18-7.91
				c-0.53-1.77-2.85-4.34-4.17-4.23c-1.85,0.16-4.81,2.33-5,3.92c-0.65,5.39-0.64,10.94-0.11,16.36c0.15,1.58,2.84,4,4.43,4.05
				c1.59,0.05,4.07-2.1,4.68-3.82C877.06,794.81,876.67,791.8,876.83,788.99z"/>
			<path d="M54.52,789.41c-0.23,8.47-6.99,14.33-16.13,13.99c-9.02-0.33-15.07-6.3-14.91-14.72c0.17-8.73,6.92-14.58,16.43-14.21
				C48.85,774.81,54.76,780.85,54.52,789.41z M44.14,788.9c-0.14-2.87,0.27-5.7-0.57-8.1c-0.6-1.72-2.86-3.96-4.39-3.97
				c-1.59-0.01-4.41,2.26-4.57,3.76c-0.57,5.56-0.61,11.25-0.07,16.81c0.14,1.5,3.03,3.82,4.63,3.8c1.53-0.03,3.78-2.36,4.36-4.13
				C44.37,794.48,44,791.5,44.14,788.9z"/>
			<path d="M585.79,785.61c1.38-7.03-0.95-11.27-6.98-7.9c0.17,0.83,0.7,1.87,0.47,2.68c-0.5,1.72-1,3.99-2.28,4.77
				c-1.11,0.68-4.33,0.1-4.76-0.8c-0.79-1.67-0.94-4.38-0.08-5.95c2.66-4.89,17.51-5.56,20.92-1.05c0.9,1.19,1.17,3.07,1.24,4.65
				c0.17,4.15-0.18,8.34,0.17,12.46c0.15,1.73,1.53,3.35,2.89,6.13c-1.85,4.01-5.75,4.28-11.03-0.64c-2.64,1.1-5.1,2.52-7.74,3.12
				c-3.62,0.82-7.19,0.26-8.7-3.81c-1.55-4.17-0.18-7.87,3.69-9.74C577.28,787.76,581.41,786.97,585.79,785.61z M585.53,789.02
				c-5.69,0.06-7.87,1.72-7.05,5.87c0.32,1.61,2.23,3.94,3.62,4.09C585.38,799.34,586.65,795.44,585.53,789.02z"/>
			<path d="M836.13,757.27c4.05-0.25,8.11-0.5,12.94-0.79c0,4.38,0,8.31,0,12.23c0,8.98-0.15,17.97,0.11,26.94
				c0.06,2.05,1.55,4.05,2.49,6.33c-4.42,0-9.86,0-14.21,0c0.75-2.37,2.01-4.6,2.06-6.85c0.22-10.14,0.12-20.29,0.08-30.44
				c-0.01-2.72,1.05-6.14-4.99-5.54C835.12,758.52,835.63,757.9,836.13,757.27z"/>
			<path d="M770.72,787.95c-4.03,0-8.16,0.17-12.27-0.05c-3.33-0.18-4.59,1.13-4.21,4.34c0.12,0.99-0.01,2,0.03,3
				c0.21,5.53,3.02,7.73,8.18,5.46c3.11-1.37,5.56-4.23,8.09-6.24c0.65,4.16-3.76,8.26-10.34,8.91
				c-9.44,0.94-16.49-4.82-16.63-13.59c-0.15-9.38,6.33-15.68,15.73-15.3C767.02,774.78,771.68,779.99,770.72,787.95z
				 M763.45,785.12c-1.1-3.22-1.63-5.88-2.97-8.03c-0.42-0.69-4-0.6-4.39,0.1c-1.22,2.2-1.61,4.86-2.49,7.93
				C757.13,785.12,759.5,785.12,763.45,785.12z"/>
			<path d="M833,787.8c-5.38,0-10.77,0-16.6,0c-0.12,2.25-0.31,3.85-0.26,5.45c0.08,3.07-0.72,7.4,3.41,7.68
				c3.18,0.21,6.67-1.79,9.75-3.34c1.36-0.69,2.04-2.71,3.63-4.97c-0.78,7.55-6.06,11.27-13.67,10.78
				c-8.96-0.58-14.24-6.23-13.89-14.86c0.34-8.29,6.53-14.08,15.03-14.06C828.45,774.49,832.79,778.84,833,787.8z M825.27,785.13
				c-0.98-3.09-1.39-5.81-2.74-7.92c-0.47-0.74-4.36-0.59-4.78,0.18c-1.18,2.19-1.37,4.91-2.02,7.75
				C819.3,785.13,821.69,785.13,825.27,785.13z"/>
			<path d="M355.44,778.22c-3.44,4.15-5.81,18-3.79,21.02c0.72,1.08,2.53,1.42,3.73,2.85c-5.51,0-11.03,0-16.79,0
				c4.57-4.21,4.26-22.93-0.17-25.57c5.58-3.15,11.64-2.31,13.24,2.02c1.44-1.09,2.72-2.36,4.25-3.16c3.9-2.03,8.27,0.15,8.64,4.21
				c0.28,3.04-0.83,5.48-4.11,5.7C356.08,785.59,355.59,782.22,355.44,778.22z"/>
			<path d="M181.84,787.95c-4.27,0-8.57,0.1-12.85-0.04c-2.83-0.09-4.52,0.61-4.18,3.86c0.37,3.47-1.2,7.97,3.59,9.33
				c4.46,1.26,8.05-0.94,10.71-4.63c0.7-0.97,1.44-1.91,2.69-3.56c-0.99,7.55-6.52,11.24-14.27,10.41
				c-8.93-0.95-13.82-6.67-13.24-15.48c0.53-8.04,7.17-13.7,15.71-13.37C177.59,774.76,181.94,779.48,181.84,787.95z M173.94,785.16
				c-0.86-3.04-1.2-5.77-2.49-7.94c-0.43-0.73-4.34-0.65-4.81,0.14c-1.26,2.15-1.53,4.88-2.31,7.8
				C167.96,785.16,170.37,785.16,173.94,785.16z"/>
			<path d="M1010.12,793.85c-0.93,7.26-6.78,10.63-15.16,9.25c-8.59-1.41-12.81-7.44-11.66-16.63c0.97-7.76,8.35-12.99,16.83-11.93
				c6.91,0.86,10.84,5.74,10.18,13.31c-5.34,0-10.75,0-16.61,0c0.02,4.94-2.06,10.43,2.65,12.74
				C1002.67,803.69,1006.59,798.55,1010.12,793.85z M1003.03,785.24c-1.1-3.3-1.56-6.01-2.94-8.1c-0.48-0.73-4.28-0.55-4.78,0.29
				c-1.28,2.12-1.56,4.86-2.37,7.81C996.57,785.24,998.98,785.24,1003.03,785.24z"/>
			<path d="M58.86,775.5c3.89-0.32,7.78-0.64,12.03-0.99c0.36,1.53,0.67,2.86,1.06,4.52c1.45-1.25,2.57-2.46,3.92-3.32
				c3.37-2.17,7.57-1.19,8.74,2.31c0.54,1.63,0.35,4.09-0.57,5.45c-0.76,1.12-3.84,2.12-4.58,1.53c-1.78-1.43-2.8-3.81-4.59-6.51
				c-0.96,2.72-2.26,5.59-2.96,8.6c-0.47,2.05-0.13,4.3-0.12,6.46c0.02,3.44-1.07,7.5,4.35,8.54c-5.55,0-11.09,0-16.91,0
				C63.94,797.64,63.56,779.07,58.86,775.5z"/>
			<path d="M328.72,767.13c0.14,2.57,0.27,4.86,0.4,7.29c1.71,0.51,3.3,0.98,4.9,1.46c0,0.34-0.01,0.67-0.01,1.01
				c-1.47,0.36-2.95,0.72-4.31,1.06c0,7.07,0,14.09,0,22.51c2.45-2.31,3.78-3.56,5.3-5c-0.32,5.31-3.35,7.93-8.74,7.93
				c-4.9,0-6.48-1.63-6.62-7.18c-0.11-4.64,0.16-9.31-0.13-13.94c-0.12-1.97-1.23-3.87-1.89-5.8c0.88-2.67,1.88-5.75,3.05-9.32
				C322.76,767.13,325.47,767.13,328.72,767.13z"/>
			<path d="M434.76,776.51c7.07-1.02,3.53-6.34,5.3-9.46c2.54,0,5.12,0,8.04,0c0.2,2.54,0.39,4.96,0.58,7.37
				c1.74,0.55,3.31,1.04,4.87,1.53c-0.02,0.33-0.04,0.66-0.06,0.99c-1.49,0.35-2.98,0.7-5.06,1.2c0,5.96-0.07,12.08,0.08,18.19
				c0.02,0.93,1.05,1.83,1.61,2.74c1.34-1.03,2.67-2.07,3.93-3.04c0.86,3.47-0.87,5.83-5.34,6.95c-6.38,1.6-9.22-0.51-9.27-6.94
				c-0.03-4.16,0.02-8.32-0.02-12.48C439.4,780.59,440.74,776.9,434.76,776.51z"/>
			<path d="M205.47,777.17c-6.37-1.2-7.78-0.14-7.88,5.64c-0.07,3.82-0.33,7.69,0.11,11.46c0.26,2.21,1.45,5.86,2.71,6.08
				c2.58,0.46,5.72-0.5,8.18-1.76c1.69-0.86,2.61-3.21,4.06-5.15c0.21,4.31-2.37,7.78-6.5,9.19c-6.06,2.08-13.1-0.36-16.66-5.78
				c-3.5-5.32-2.89-12.9,1.41-17.59c4.27-4.65,12.2-6.41,17.38-3.5c1.61,0.9,3.38,2.61,3.77,4.26c0.41,1.75-0.22,4.3-1.38,5.67
				c-0.75,0.89-4.04,1-4.8,0.18c-1.2-1.3-1.41-3.66-1.67-5.62C204.08,779.43,204.89,778.49,205.47,777.17z"/>
			<path d="M423.4,777.39c-5.7-1.6-7.42-0.53-7.63,4.75c-0.15,3.98-0.4,8.02,0.09,11.94c0.29,2.32,1.6,6.07,3.01,6.35
				c2.49,0.48,5.61-0.79,8.05-2.1c1.64-0.88,2.55-3.11,4.28-5.38c-0.88,7.14-5.67,10.97-12.19,10.38
				c-5.91-0.53-10.37-3.36-12.65-9.02c-2.18-5.42-0.91-11.81,3.25-15.62c4.53-4.14,10-5.6,15.67-3.29c2.21,0.9,4.03,3.61,5.18,5.91
				c0.51,1.03-0.64,3.74-1.81,4.52c-1.17,0.78-3.78,0.71-4.9-0.13c-1.13-0.84-1.52-3.07-1.65-4.73
				C422,779.83,422.92,778.61,423.4,777.39z"/>
			<path d="M292.04,801.45c0-2.56,0-5.56,0-8.55c0.37-0.12,0.74-0.24,1.12-0.36c0.81,1.48,1.55,3.01,2.46,4.42
				c2.62,4.06,7.28,5.67,10.7,3.41c1.22-0.81,2.54-2.62,2.46-3.88c-0.07-1.02-2.03-2.32-3.4-2.77c-2.35-0.77-4.92-0.81-7.32-1.47
				c-4.94-1.34-6.94-4.32-6.41-9.17c0.56-5.16,3.78-8.52,8.71-8.54c3.08-0.01,6.16,0.6,9.58,0.98c0,2.12,0,4.37,0,6.62
				c-0.59,0.59-1.18,1.19-1.77,1.78c-0.24-1.12-0.13-2.56-0.79-3.3c-1.38-1.53-3.2-3.78-4.8-3.75c-2.37,0.04-4.72,1.8-7.07,2.82
				c1.82,1.05,3.52,2.64,5.48,3.05c5.06,1.05,10.57,0.99,11.82,7.77c1.58,8.52-4.51,14.39-13.05,12.53
				C297.47,802.55,295.17,802.1,292.04,801.45z"/>
			<path d="M774.87,775.69c3.99,0,9.01,0,14.1,0c-4.29,6.45,2.16,10.14,2.64,15.19c0.42,0.04,0.83,0.09,1.25,0.13
				c1.63-4.02,3.27-8.04,5.03-12.39c-1.69-0.72-3.01-1.28-4.34-1.85c0.05-0.3,0.11-0.61,0.16-0.91c3.26,0,6.53,0,9.77,0
				c-7.71,7.76-8.12,19.33-14.91,28.68C783.8,794.5,779.36,785.15,774.87,775.69z"/>
			<path d="M461.45,778.21c-1.64-0.49-2.98-0.89-4.32-1.28c0-0.47,0-0.94-0.01-1.41c4.21-0.32,8.43-0.65,12.59-0.97
				c3.36,8.92-2.4,19,3.7,27.45c-4.39,0-9.78,0-13.96,0c0.64-2.68,1.73-5.5,1.91-8.38C461.68,788.49,461.45,783.32,461.45,778.21z"
				/>
			<path d="M472.47,764.12c-3.22,2.11-5.26,4.47-6.81,4.18c-1.69-0.31-3.83-2.92-4.17-4.81c-0.54-3.01,1.79-5.25,4.83-4.56
				C468.18,759.35,469.62,761.61,472.47,764.12z"/>
		</g>
	</g>
</g>
</svg>
