<?xml version="1.0" encoding="utf-8"?>
<!-- Generator: Adobe Illustrator 23.0.2, SVG Export Plug-In . SVG Version: 6.00 Build 0)  -->
<svg version="1.1" id="Layer_1" xmlns="http://www.w3.org/2000/svg" xmlns:xlink="http://www.w3.org/1999/xlink" x="0px" y="0px"
	 viewBox="0 0 826.4 368" style="enable-background:new 0 0 826.4 368;" xml:space="preserve">
<style type="text/css">
	.st0{enable-background:new    ;}
	.st1{fill:#FFFFFF;}
	.st2{font-family:'Circe-Light';}
	.st3{font-size:92px;}
	.st4{letter-spacing:1;}
</style>
<title>text</title>
<g class="st0">
	<path class="st1" d="M1.6,73.4h6.9C11.1,70,18,55.9,19.6,26.7l0.6-12.9h36.2v59.6h8.7v17.1h-4.8V78.2H6.3v12.3H1.6V73.4z
		 M14.1,73.4h37.4V18.6H25.1l-0.7,11.8C22.6,56.9,16.6,70.5,14.1,73.4z"/>
</g>
<g class="st0">
	<path class="st1" d="M96.5,13.3h4.1l28.1,64.9h-5.4l-9.4-21.9H83l-9.4,21.9h-5.2L96.5,13.3z M85,51.5h26.8L98.4,20.2L85,51.5z"/>
</g>
<g class="st0">
	<path class="st1" d="M170.8,47.7h-34.2c0.8,16.5,12.6,26.5,28.4,26.5c7.2,0,12.9-2.2,18.2-6.1l2.1,4.1c-5.7,4.3-12.4,6.7-20.8,6.7
		c-19.7,0-33-13-33-33c0-19.1,12.8-33,32.2-33c7.9,0,15.5,2.2,20.3,6.4l-2.3,3.8c-4.9-3.9-11-5.4-17.2-5.4
		C148.5,17.8,138,28,136.7,43h34.1V47.7z"/>
	<path class="st1" d="M197.6,13.8h5.2l25.9,35.3l24.9-35.3h4.9v64.4h-5.1V21.7l-24.7,34.8h-0.8L202.7,22v56.2h-5.1V13.8z"/>
	<path class="st1" d="M304.2,13c18.3,0,32.3,13.8,32.3,33c0,19-14,33-32.3,33c-18.3,0-32.3-13.8-32.3-33
		C271.9,27.3,285.7,13,304.2,13z M304.2,74.2c15.7,0,27-12.2,27-28.2c0-16.3-11.8-28.2-27-28.2c-15.3,0-27,12-27,28.2
		C277.3,62.1,289.1,74.2,304.2,74.2z"/>
	<path class="st1" d="M369.8,13.8h35.5v4.8h-30.5v59.6h-5.1V13.8z"/>
</g>
<g class="st0">
	<path class="st1" d="M413.9,78.2V13.8c3.6,0,12.1-0.2,15.7-0.2c17.8,0,22.9,9.8,22.9,19.4c0,10-6.9,19.7-22.9,19.7
		c-3,0-7-0.1-10.7-0.4v25.9H413.9z M419,18.6v28.9c3.6,0.3,6.8,0.5,10.5,0.5c11.7,0,17.8-6.2,17.8-15c0-8.4-5-14.5-17.1-14.5
		C427.2,18.4,422,18.5,419,18.6z"/>
</g>
<g class="st0">
	<path class="st1" d="M491.7,13C510,13,524,26.8,524,46c0,19-14,33-32.3,33s-32.3-13.8-32.3-33C459.4,27.3,473.2,13,491.7,13z
		 M491.7,74.2c15.7,0,27-12.2,27-28.2c0-16.3-11.8-28.2-27-28.2c-15.3,0-27,12-27,28.2C464.8,62.1,476.6,74.2,491.7,74.2z"/>
	<path class="st1" d="M537.5,13.8h5.1v59.6h27.9V13.8h5.1v59.6h27.9V13.8h5.1v64.4h-70.9V13.8z"/>
	<path class="st1" d="M629.3,13.8h5.1v64.4h-5.1V13.8z"/>
</g>
<g class="st0">
	<path class="st1" d="M55.5,175.7H15.3v30.5h-5.1v-64.4h5.1V171h40.2v-29.2h5.1v64.4h-5.1V175.7z"/>
	<path class="st1" d="M99,141.3h4.1l28.1,64.9h-5.4l-9.4-21.9H85.5l-9.4,21.9h-5.2L99,141.3z M87.5,179.5h26.8l-13.3-31.3
		L87.5,179.5z"/>
</g>
<text transform="matrix(1 0 0 1 131.19 206.2)" class="st1 st2 st3 st4"> </text>
<g class="st0">
	<path class="st1" d="M167.1,141.8h5.1v64.4h-5.1V141.8z"/>
	<path class="st1" d="M238.3,175.7h-40.2v30.5H193v-64.4h5.1V171h40.2v-29.2h5.1v64.4h-5.1V175.7z"/>
	<path class="st1" d="M262,141.9c3.6-0.1,11.3-0.4,16.9-0.4c15.4,0,20.3,7,20.3,15.9c0,8.6-5.8,13.5-12.5,15.1v0.2
		c9.3,1.1,15,6.4,15,15.5c0,12.9-9.8,18.3-22.9,18.3c-5.5,0-13.1-0.2-16.8-0.4V141.9z M267.1,146.6v24.5h12.5
		c8,0,14.6-4.7,14.6-12.6c0-7.8-4.9-12.1-15.5-12.1C274.8,146.3,269.6,146.5,267.1,146.6z M267.1,175.6v25.8c2.6,0.1,7.9,0.4,12,0.4
		c11,0,17.7-4.5,17.7-13.8c0-7.9-6.3-12.3-17.4-12.3H267.1z"/>
	<path class="st1" d="M317,141.8h35.6v4.8h-30.5v24.6h27.8v4.8h-27.8v25.5h31.5v4.8H317V141.8z"/>
	<path class="st1" d="M415.2,199.9c-4.4,4.4-12.3,7.1-20,7.1c-19.1,0-32.3-13-32.3-33c0-18.5,12.1-33,31.6-33c8.1,0,14.6,2,19.5,6.1
		l-2.4,3.8c-4.6-3.5-10-5.1-17-5.1c-15.6,0-26.3,12-26.3,28.2c0,16.9,11.2,28.2,27.3,28.2c6.9,0,13.1-2.4,17.6-6.1L415.2,199.9z"/>
	<path class="st1" d="M417.5,141.8h52.7v4.8h-23.8v59.6h-5.1v-59.6h-23.8V141.8z"/>
	<path class="st1" d="M479.6,206.2v-64.4h5.1v56.1l43.3-56.1h4.5v64.4h-5.1v-56.1l-43.3,56.1H479.6z"/>
	<path class="st1" d="M551.2,141.8h5.1v59.6h39.5v-59.6h5.1v59.6h8.7v17.1h-4.8v-12.3h-53.5V141.8z"/>
	<path class="st1" d="M623.3,141.8h5.1v64.4h-5.1V141.8z"/>
	<path class="st1" d="M649.2,206.2v-64.4h5.1v56.1l43.3-56.1h4.5v64.4h-5.1v-56.1l-43.3,56.1H649.2z M664.4,127.8
		c1.9,3.9,5.8,6.5,11.5,6.5c5.2,0,9.8-2.5,11.1-6.5h4.8c-1.2,6.1-8.2,10.2-15.9,10.2c-8.6,0-14.7-4.3-16.3-10.2H664.4z"/>
	<path class="st1" d="M766.1,175.7h-40.2v30.5h-5.1v-64.4h5.1V171h40.2v-29.2h5.1v64.4h-5.1V175.7z"/>
	<path class="st1" d="M792,141.8h5.1v64.4H792V141.8z"/>
</g>
<g class="st0">
	<path class="st1" d="M55.2,274.6H15.3v59.6h-5.1v-64.4h50v64.4h-5.1V274.6z"/>
</g>
<g class="st0">
	<path class="st1" d="M78.8,334.2v-64.4c3.6,0,12.1-0.2,15.7-0.2c17.8,0,22.9,9.8,22.9,19.4c0,10-6.9,19.7-22.9,19.7
		c-3,0-7-0.1-10.7-0.4v25.9H78.8z M83.9,274.6v28.9c3.6,0.3,6.8,0.5,10.5,0.5c11.7,0,17.8-6.2,17.8-15c0-8.4-5-14.5-17.1-14.5
		C92.2,274.4,86.9,274.5,83.9,274.6z"/>
</g>
<g class="st0">
	<path class="st1" d="M156.7,269c18.3,0,32.3,13.8,32.3,33c0,19-14,33-32.3,33c-18.3,0-32.3-13.8-32.3-33
		C124.4,283.3,138.1,269,156.7,269z M156.7,330.2c15.7,0,27-12.2,27-28.2c0-16.3-11.8-28.2-27-28.2c-15.3,0-27,12-27,28.2
		C129.7,318.1,141.5,330.2,156.7,330.2z"/>
	<path class="st1" d="M202.4,269.8H238v4.8h-30.5v24.6h27.8v4.8h-27.8v25.5h31.5v4.8h-36.5V269.8z"/>
</g>
<g class="st0">
	<path class="st1" d="M253.4,269.8h5.1v64.4h-5.1V269.8z M267.4,300.3l31.7,33.9h-6.5l-31.2-33.6l30.3-30.8h6.2L267.4,300.3z"/>
</g>
<g class="st0">
	<path class="st1" d="M299.3,269.8H352v4.8h-23.8v59.6h-5.1v-59.6h-23.8V269.8z"/>
	<path class="st1" d="M361.4,334.2v-64.4h5.1v56.1l43.3-56.1h4.5v64.4h-5.1v-56.1l-43.3,56.1H361.4z"/>
</g>
</svg>
